<svg id="svg" viewBox="0 0 1280 720" xmlns="http://www.w3.org/2000/svg" xmlns:xlink="http://www.w3.org/1999/xlink" version="1.1" width="1600" height="900" preserveAspectRatio="xMidYMid meet" buffered-rendering="static" style="background: rgb(255, 255, 255);"><g><path d="M 390.17971473738965 86.63675001959417 C 389.61887931305483 85.09937480037232 389.30310939208124 85.01192685602484 388.3742410734301 86.13675001959417 C 387.7550736638167 86.88653750881738 386.9912683781714 90.875 386.6768959942184 95 C 386.3625236102653 99.125 385.64268382715363 105.875 385.0772520317479 110 C 384.5118202363421 114.125 383.11978955519163 121.775 381.9838505180801 127 C 380.84791148096855 132.225 378.5147631694358 142.125 376.7990764924517 149 C 375.0833898154677 155.875 371.0458994296068 169.6 367.82687563498314 179.5 C 364.6078518403595 189.4 361.9799314519604 198.0625 361.9870525496519 198.75 C 361.99417364734336 199.4375 363.676918748877 202.3625 365.7264861086155 205.25 C 367.7760534683541 208.1375 370.2510534683541 212.6375 371.2264861086155 215.25 C 372.201918748877 217.8625 373.01813345817726 220.7875 373.04029657372723 221.75 C 373.0624596892772 222.7125 371.258755543426 224.85 369.0320651385023 226.5 C 366.8053747335785 228.15 364.746159581019 230.625 364.45603146614775 232 C 364.1659033512765 233.375 364.16960749712774 235.2875 364.46426290137276 236.25 C 364.7878899802264 237.3071367736994 365.9898046090009 238 367.5 238 C 368.875 238 371.6210482805235 239.0125 373.6023295122744 240.25 C 375.5836107440253 241.4875 378.0586107440253 243.9625 379.1023295122744 245.75 C 380.39392677505015 247.96202317850882 381 250.9162649012145 381 255 C 381 260.11906362038286 380.59623749267547 261.4601222571733 378.25 264.1338625659206 C 376.7375 265.8574869771769 374.2625 267.88248697717694 372.75 268.6338625659206 C 371.2375 269.38523815466425 367.975 270 365.5 270 C 362.2715336700375 270 360.26422672073477 269.3642331649813 358.3960738636234 267.75 C 356.4564073085068 266.0739732924662 355.6522226292726 264.2245037945196 355.2436353233171 260.5 C 354.78217254686535 256.2935064627015 355.03671769784745 255.14292209178433 356.8475614596937 253.25 C 358.2775207175364 251.75522638862978 360.17479660453523 251 362.5 251 C 364.425 251 366.225 250.55 366.5 250 C 366.775 249.45 365.9875 247.7952624642087 364.75 246.3228054760193 C 363.5125 244.8503484878299 361.15 243.09072173747865 359.5 242.41252380857205 C 357.5935042305564 241.62889866778062 355.0419943592582 241.44972685304273 352.5 241.9209706630116 C 350.3 242.32881436185994 347.15 243.37504748970295 345.5 244.2459331693294 C 343.85 245.11681884895583 340.925 247.45091125917384 339 249.43280519203608 C 337.075 251.4146991248983 335.275 253.038300550389 335 253.04080835979317 C 334.725 253.04331616919737 333.4988050855743 251.3476602102729 332.2751224123873 249.27268400662768 C 330.85174828154584 246.85909467084977 329.8157881342506 242.97827735393813 329.39942113636033 238.5 C 328.91543294735135 233.29441608630182 329.19828829852867 229.83375649129115 330.50283715751414 225 C 331.4676689977766 221.425 336.0619600019627 211.075 340.71237272237204 202 C 345.36278544278144 192.925 350.51584630644925 182.35 352.16361908607837 178.5 C 353.81139186570744 174.65 355.7558638071894 169.7 356.48466784492734 167.5 C 357.2134718826652 165.3 358.6079633853705 160.8 359.58353785093914 157.5 C 360.95032519290834 152.87667457719957 361.37367945961154 147.71414491270122 361.42865480325923 135 C 361.4776679901623 123.66472277259739 361.1182514525339 117.87397299726092 360.28040868590074 116.5 C 359.3761026667961 115.01703433986407 359.0289820668725 114.88777575489806 358.937671567067 116 C 358.869941374463 116.825 358.87408713214785 119.3 358.9468843619222 121.5 C 359.0196815916965 123.7 358.16851354655057 128.875 357.0553998171535 133 C 355.7534805337627 137.82467954725152 353.06012326628564 143.71038454329818 349.50483536595834 149.5 C 346.46513864719816 154.45 342.97053839581923 159.83485944361752 341.7390570295608 161.46635431915007 C 340.50757566330236 163.0978491946826 334.78722593966944 170.52284919468258 329.02716875482093 177.96635431915007 C 323.2671115699724 185.40985944361753 317.8091516051626 192.175 316.8983688330212 193 C 315.9875860608798 193.825 312.3615776271369 198.1 308.8405723135926 202.5 C 305.3195670000482 206.9 301.2742994749118 212.3 299.85108892440064 214.5 C 298.4278783738894 216.7 295.89166808502324 220.975 294.21506606025355 224 C 292.53846403548386 227.025 290.1880781461441 232.425 288.99198630616513 236 C 287.675482684676 239.9348988844423 286.80457189290973 245.0651011155577 286.7850868930595 249 C 286.7673840558303 252.575 287.25849743511634 256.5125 287.8764499581396 257.75 C 288.4944024811628 258.9875 289.5625 260.00049584327706 290.25 260.0011018739491 C 290.9375 260.00170790462107 292.7375 258.65170790462105 294.25 257.0011018739491 C 295.7625 255.3504958432771 298.4625 253.7303786913408 300.25 253.40084153631292 C 302.0375 253.07130438128505 304.85 253.05662520286702 306.5 253.36822113982845 C 308.15 253.67981707678987 310.90646329564197 255.18693838544905 312.6254739903155 256.7173796035155 C 314.4775559015778 258.36629458991666 316.2091064928627 261.23155059128493 316.8754739903155 263.75 C 317.7547298273948 267.07303323836436 317.70931751449194 268.70885693536843 316.66726552176544 271.25 C 315.93426155873647 273.0375 313.9092615587365 275.7375 312.16726552176544 277.25 C 310.42526948479446 278.7625 307.875 280 306.5 280 C 304.94444444444446 280 304 280.56666666666666 304 281.5 C 304 282.325 306.3625 284.744300768853 309.25 286.8762239307845 C 312.1375 289.00814709271594 315.625 291.3337953835338 317 292.0443312437131 C 318.375 292.75486710389237 322.2 294.17265892781717 325.5 295.1949797413237 C 328.8 296.2173005548303 335.1 297.33626284853835 339.5 297.6815626162305 C 344.4619195746029 298.0709602699618 349.9684403456351 297.83162611151965 354 297.0513379350367 C 357.575 296.359414592688 362.975 294.8498285026147 366 293.69670217931827 C 369.025 292.54357585602185 374.0875 289.44008436978123 377.25 286.8000544321169 C 381.11722525653136 283.5717254351416 383.73673794309644 280.3621859187111 385.25 276.998110634275 C 386.4875 274.2470714831262 387.8375 271.9970714831262 388.25 271.998110634275 C 388.6625 271.99914978542375 389.9 274.025 391 276.5 C 392.1 278.975 394.9125 283.07880755706014 397.25 285.6195723490225 C 399.5875 288.1603371409849 403.975 291.48772681985815 407 293.0137716354076 C 410.025 294.53981645095695 414.975 296.5172550867394 418 297.40807971492416 C 421.16875779072154 298.3412392126852 427.5266910887537 299.0778706403436 433 299.1459827247427 C 440.6636238036693 299.24135197938966 443.9497706813137 298.7833268192496 450 296.7765123351652 C 454.125 295.40828159368215 458.625 293.7003528392764 460 292.9811151031523 C 461.375 292.2618773670283 464.8831154509644 289.83439284949554 467.79581211325416 287.5867050641907 C 470.7085087755439 285.3390172788858 473.07100877554393 282.9375 473.04581211325416 282.25 C 473.0206154509644 281.5625 472.325 280.775 471.5 280.5 C 470.675 280.225 469.2125 280.00956417090526 468.25 280.02125371312286 C 467.2875 280.03294325534046 465.2911282783472 278.79544325534044 463.813618396327 277.27125371312286 C 462.33610851430683 275.7470641709053 460.63395983418496 273.15 460.0310657738339 271.5 C 459.42817171348287 269.85 459.1932661026945 267.15 459.50905330541536 265.5 C 459.82484050813616 263.85 461.07698918825804 261.329152491531 462.29160592790845 259.8981166478466 C 463.5062226675588 258.46708080416226 465.9625 256.55458080416224 467.75 255.64811664784662 C 469.5375 254.74165249153097 472.35 254 474 254 C 475.65 254 478.2375 254.6281531761503 479.75 255.39589594700067 C 481.2625 256.16363871785103 483.4 257.75330634884676 484.5 258.9284906825468 C 485.6 260.10367501624677 487.0625 261.05052184009645 487.75 261.0325947355461 C 488.4375 261.01466763099575 489.28609071671303 259.3125 489.63575714825123 257.25 C 489.9854235797894 255.1875 490.04773756541124 250.125 489.7742326718553 246 C 489.3846603478008 240.12447135467346 488.4718659798692 236.76723055501498 485.55996460255915 230.5 C 483.5156220580022 226.1 479.74080807238033 219.35 477.17148907895506 215.5 C 474.6021700855298 211.65 469.125 204.539504117295 465 199.69889803843336 C 460.875 194.8582919595717 456.15 189.19769083484218 454.5 187.11978442792332 C 452.85 185.04187802100444 448.8 179.84490644161315 445.5 175.5709586959426 C 442.2 171.29701095027207 437.13717752856405 164.5826120750016 434.24928339680895 160.65007230645264 C 431.36138926505384 156.71753253790368 427.6830535773092 151.25 426.07520409070963 148.5 C 424.4673546041101 145.75 422.38440658534614 141.475 421.4464307156787 139 C 420.49236763435806 136.48255130795044 419.452086734015 129.87404694811565 419.0851984828628 124 C 418.52883081405804 115.09230182021693 418.25889118544717 113.87911948100404 417.3051552370241 116 C 416.68683331019406 117.375 415.7623285925706 122.325 415.2507003089719 127 C 414.69502449658694 132.0774839980052 414.6767345370914 139.12384047270038 415.2052762245785 144.5 C 415.69192126176085 149.45 417.45005248605827 158 419.112234500795 163.5 C 420.97896979840044 169.67684708762565 426.47953206223997 182.29325169846103 433.4997371456301 196.5 C 439.7506815855527 209.15 445.5623028674795 222.2 446.4144511054674 225.5 C 447.2665993434553 228.8 447.9581291919456 233.975 447.9511841021124 237 C 447.9435151884411 240.34026836414083 447.06709382521336 244.65393872166598 445.71927833302607 247.9852476911791 C 444.35594131332726 251.35492022315265 442.82505207840234 253.5726062512593 441.75 253.7352476911791 C 440.7875 253.8808614610306 440.011571388242 253.4375 440.02571419609325 252.75 C 440.0398570039445 252.0625 439.02735700394453 250.51780710773207 437.77571419609325 249.3173491282935 C 436.52407138824196 248.11689114885493 433.3625 246.20439114885494 430.75 245.0673491282935 C 428.1375 243.93030710773206 424.65 243 423 243 C 421.35 243 418.5375 243.69534545940888 416.75 244.5452121320197 C 414.9625 245.39507880463054 412.9375 246.97007880463056 412.25 248.0452121320197 C 411.5625 249.12034545940887 411.225 250.45 411.5 251 C 411.775 251.55 413.575 252 415.5 252 C 418.01622754719705 252 419.4237900673034 252.63242514823048 420.50773202821006 254.25 C 421.3369846437256 255.4875 422.0119846437256 258.4125 422.00773202821006 260.75 C 422.00141731081334 264.2209584868183 421.4042623722728 265.58241271610785 418.75 268.1773069875945 L 415.5 271.35461397518895 L 410 270.89368089015807 C 406.6977042632817 270.61692864259265 403.4491605524846 269.6470190216963 401.8701570962491 268.4663739025636 C 400.4237434991861 267.3848682561536 398.2862434991861 265.0375 397.1201570962491 263.25 C 395.79364041636774 261.2165755819502 395.0046574603412 258.4090934697574 395.0124420926522 255.75 C 395.0213294943909 252.71421989086585 395.94985058740593 250.0097356213 398.2624420926522 246.28379191683425 C 400.1956266318656 243.16913169815209 402.809386138489 240.44963741052104 404.75 239.53379191683425 C 406.5375 238.69020636257542 408.9 238 410 238 C 411.1 238 412.2929826762848 237.2125 412.6510726139662 236.25 C 413.00916255164765 235.2875 412.5479046913621 233.15 411.626055146665 231.5 C 410.70420560196794 229.85 408.61122292568314 227.7125 406.9749825326988 226.75 C 405.25 225.73529843485016 404 224.1596589315998 404 223 C 404 221.9 404.9 218.75 406 216 C 407.1 213.25 409.8609779681537 207.9625 412.135506595897 204.25 L 416.2710131917941 197.5 L 414.63848854748994 194 C 413.7405999931226 192.075 411.0266098831362 184.2 408.60739941418683 176.5 C 406.18818894523747 168.8 402.86541777984013 157.55 401.2234634910817 151.5 C 399.58150920232333 145.45 397.52410773134284 137.35 396.6514602222362 133.5 C 395.7788127131296 129.65 394.1502420003101 120.9875 393.0324141937484 114.25 C 391.91458638718683 107.5125 390.96837163182533 98.9625 390.92971473738965 95.25 C 390.8910578429539 91.5375 390.5535578429539 87.66153750881737 390.17971473738965 86.63675001959417 Z " class="odd" fill="#000000"></path><path d="M 357 110 L 356 110 L 357 112 C 357.55 113.1 358.3375 113.77941730321056 358.75 113.50981622935683 L 359.5 113.01963245871364 L 358.75 111.50981622935683 C 358.3375 110.67941730321057 357.55 110 357 110 Z " class="odd" fill="#000000"></path><path d="M 385.27279312674244 141.79608062640014 C 386.01038839960313 142.57507149103037 386.41140544442715 145.3678208452453 386.2779385793881 148.79608062640014 C 386.1558047980515 151.93323628188006 385.54707375255083 157.875 384.9252029227199 162 C 384.30333209288904 166.125 382.66717423928213 174.675 381.28929658137133 181 C 379.9114189234605 187.325 378.176180896021 195.65 377.4332120759502 199.5 C 376.6902432558795 203.35 376.34860102726543 208.075 376.67400712347444 210 L 377.2656545711273 213.5 L 374.5568843518575 211 C 373.0670607312591 209.625 370.91633859540786 206.925 369.77750182774366 205 C 368.33209327307367 202.55679519072208 367.8576600021973 200.44320480927792 368.20622627440514 198 C 368.48086148773325 196.075 369.9267578944288 190.675 371.4193294003954 186 C 372.91190090636195 181.325 375.45591744603996 173 377.0726994885688 167.5 C 378.6894815310976 162 380.7208975221665 154.35 381.58695724649976 150.5 C 382.45301697083295 146.65 383.3605056573591 142.825 383.6035987721134 142 C 383.9642468556675 140.77604649875488 384.27143036055867 140.7385190126812 385.27279312674244 141.79608062640014 Z " class="even" fill="#ffffff"></path><path d="M 428 162 C 429.1 162.55 430.7875 164.80822447337707 431.75 167.01827660750456 C 432.7125 169.22832874163208 434.0625 171.0283287416321 434.75 171.01827660750456 C 435.4375 171.00822447337706 436.9 172.8 438 175 C 439.1 177.2 441.01518094836524 179.7875 442.2559576630339 180.75 C 443.49673437770247 181.7125 445.929204134211 184.3 447.6614460108305 186.5 C 449.39368788745 188.7 451.1404513840966 191.85 451.54314267004503 193.5 C 451.94583395599346 195.15 454.6078093370413 200.325 457.458643516818 205 C 460.3094776965946 209.675 464.52253325158284 217.4375 466.8209891945696 222.25 C 469.11944513755634 227.0625 471 231.45 471 232 C 471 232.55 471.675 233.225 472.5 233.5 C 473.325 233.775 474 234.675 474 235.5 C 474 236.325 472.7625 238.59583170713645 471.25 240.54629268252543 C 469.7375 242.4967536579144 467.9375 244.07175365791443 467.25 244.04629268252543 C 466.5625 244.02083170713644 466 244.45 466 245 C 466 245.55 464.9875 246.3112396797511 463.75 246.69164373278025 C 462.5125 247.0720477858094 460.6 247.2696970001015 459.5 247.13086420898497 C 458.4 246.99203141786845 457.21281152949376 247.46829173811733 456.861803398875 248.18922047620472 C 456.51079526825623 248.91014921429212 455.72329526825627 249.1625 455.111803398875 248.75 C 454.30817496004505 248.20788857118774 454.3464809519796 247.54745662180056 455.25 246.36735837997037 C 456.1631107319869 245.1747323121804 456.29786643919215 242.6143738752806 455.75 236.86735837997037 C 455.10521318437264 230.1036664370098 455.21042636874523 229.0701421229151 456.5 229.5 C 457.65257987522455 229.88419329174152 458.00672715566685 229.1314496880614 458.0290447581493 226.25 C 458.04548690442056 224.12713679005057 456.7489773267542 219.67962956391236 455.04102866388 216 C 453.38164519504977 212.425 450.88023655713204 208.15 449.4823428018407 206.5 C 448.0844490465493 204.85 446.9540562889705 203.1625 446.97035889611 202.75 C 446.9866615032495 202.3375 443.25607495235835 196.9375 438.68016656079635 190.75 C 434.10425816923436 184.5625 429.9766343604783 178.6 429.50766920800504 177.5 C 429.03870405553187 176.4 428.5197111031392 174.375 428.3543515360212 173 C 428.18899196890334 171.625 427.7474565589607 169.825 427.37316173614875 169 C 426.9988669133367 168.175 426.76178491337106 166.7125 426.8463128473362 165.75 C 426.9308407813013 164.7875 426.55 163.775 426 163.5 C 425.45 163.225 425.225 162.55 425.5 162 L 426 161 L 428 162 Z " class="even" fill="#ffffff"></path><path d="M 348.5 163 C 349.325 163 350.30941992456144 163.5625 350.68759983235884 164.25 C 351.0657797401562 164.9375 350.9532797401562 165.62237875162117 350.43759983235884 165.77195278138038 C 349.92191992456145 165.9215268111396 349.6402144495678 167.0465268111396 349.81158766570627 168.27195278138038 C 349.98296088184475 169.49737875162117 349.39309347589784 172.075 348.5007712080465 174 C 347.60844894019516 175.925 345.55504777843487 179.75 343.93765751524586 182.5 C 342.32026725205685 185.25 340.54763465800374 188.5125 339.99847397290563 189.75 C 339.4493132878075 190.9875 338.2806082058612 192.3375 337.40135156858037 192.75 C 336.5220949312996 193.1625 334.8345949312996 195.525 333.65135156858037 198 C 332.4681082058612 200.475 330.9375 203.0625 330.25 203.75 C 329.5625 204.4375 329 205.675 329 206.5 C 329 207.325 328.4375 208.3375 327.75 208.75 C 327.0625 209.1625 325.6234104368835 211.075 324.5520231930744 213 C 323.48063594926526 214.925 321.3532187879275 218.975 319.82442950121265 222 C 317.96739573371815 225.6744940558435 317.03737573469607 229.0765733154079 317.02240630813833 232.25 C 317.01008283866224 234.8625 317.3375 237.0130741921374 317.75 237.02905376030535 C 318.1625 237.0450333284733 319.175 234.96337266498884 320 232.4031411747843 C 320.825 229.8429096845798 321.92860731666457 227.46733549244243 322.45246070369905 227.124087414479 C 323.0238038844832 226.74972227049878 323.1385554731049 227.5003497294816 322.7392393802952 229 C 322.37311426538866 230.375 321.7195069487241 234.76687442781758 321.2867786765962 238.75972095070574 L 320.5 246.01944190141145 L 317.25 246.00972095070574 C 315.07840912617246 246.00322558829419 313.253409066496 245.1815501991911 311.75 243.53343903712144 C 309.9785110021946 241.59144543349666 309.2377050802785 241.325605987833 308.26666666666637 242.28343903712144 C 307.58833333333286 242.95254756670465 306.79544799388 243.275 306.5046992456599 243 C 306.2139504974398 242.725 306.4915901289118 240.25 307.12167620448656 237.5 C 307.7517622800613 234.75 308.62501520260287 231.6 309.0622382545789 230.5 C 309.499461306555 229.4 310.62920844855716 226.025 311.5727874590282 223 C 312.5163664694992 219.975 313.90197829910505 216.6 314.65192485815237 215.5 C 315.40187141719963 214.4 315.97645832793614 212.825 315.928784659789 212 C 315.87238882369576 211.024061571403 315.69500026065884 210.93671797616918 315.42105263157896 211.75 C 315.18947368421055 212.4375 314.4375 213.01466763099575 313.75 213.0325947355461 C 312.93688404685423 213.05379737511498 313.1028027492987 212.44215970951905 314.2247217929995 211.2825947355461 C 315.1733187791492 210.30216763099574 315.96081877914924 208.0375 315.9747217929995 206.25 C 315.9905770962731 204.21149562196788 316.65234379644426 202.63744307578048 317.75 202.02739227253716 C 318.7125 201.49245802243257 319.84999999999997 201.37995802243256 320.2777777777777 201.77739227253716 C 320.7055555555554 202.17482652264172 321.02746578134844 201.375 320.99313383509553 200 C 320.955555601225 198.49498565588644 322.44492159555375 195.7090258194044 324.73531339697536 193 C 326.8278441022622 190.525 329.88093387646916 186.5343936755418 331.5199573396575 184.1319859456484 C 333.15898080284586 181.72957821575505 335.2875 179.36707821575504 336.25 178.8819859456484 C 337.2125 178.3968936755418 338.45 176.65 339 175 C 339.55 173.35 340.45 172 341 172 C 341.55 172 343.125 169.975 344.5 167.5 C 345.875 165.025 347.675 163 348.5 163 Z " class="even" fill="#ffffff"></path><path d="M 323.72222222222223 220.25 L 324.5 221 L 323.72222222222223 221.75 C 323.2944444444445 222.1625 322.94444444444446 221.825 322.94444444444446 221 C 322.94444444444446 220.175 323.2944444444445 219.8375 323.72222222222223 220.25 Z " class="even" fill="#ffffff"></path><path d="M 399.4 223.31694807230014 C 399.895 223.41762663253508 400.4575 224.0625 400.65 224.75 C 400.84250000000003 225.4375 399.7625 226.49484015129855 398.25 227.09964478066345 C 396.6595087947393 227.73563581795656 392.5485230679364 227.9807434123912 388.5 227.68096498086666 C 384.65 227.39588646161351 380.7125 226.90104631031497 379.75 226.5813202002032 C 378.7875 226.26159409009145 378 225.55 378 225 C 378 224.39747290452553 379.291786939708 224.2731909139487 381.25 224.687319590438 C 383.0375 225.0653453651789 386.75 225.2483409178561 389.5 225.0939763741651 C 392.25 224.93961183047406 395.4 224.43544464731204 396.5 223.97360485602724 C 397.6 223.5117650647424 398.90500000000003 223.21626951206522 399.4 223.31694807230014 Z " class="even" fill="#ffffff"></path><path d="M 305 228 C 305.55 228 306 228.675 306 229.5 C 306 230.325 305.775 231 305.5 231 C 305.225 231 304.775 230.325 304.5 229.5 C 304.225 228.675 304.45 228 305 228 Z " class="even" fill="#ffffff"></path><path d="M 459.72222222222223 230.25 C 459.2944444444445 229.8375 458.94444444444446 230.175 458.94444444444446 231 C 458.94444444444446 231.825 459.2944444444445 232.1625 459.72222222222223 231.75 L 460.5 231 L 459.72222222222223 230.25 Z " class="odd" fill="#000000"></path><path d="M 428.5 248.16778329656478 C 429.05 248.1102638504588 430.625 249.06236071867872 432 250.28355411483125 C 433.375 251.50474751098375 435.52806343082705 253.85302695175457 436.78458540183794 255.5019528720997 C 438.0411073728488 257.15087879244487 439.0536073728488 259.7375 439.03458540183794 261.25 C 439.01471859290126 262.82967586532146 439.63835861891556 264.21278620630517 440.5 264.5 C 441.325 264.775 442.225 265.9 442.5 267 C 442.775 268.1 443.675 269 444.5 269 C 445.6274763908359 269 445.9917376039914 270.17965809568636 445.96673071529426 273.75 C 445.94568210370954 276.755201521816 445.302861611747 279.2347683514848 444.21673071529426 280.5003167776632 C 443.2725288218824 281.60049100537805 441.15 283.1054744126027 439.5 283.84472434927363 C 437.85 284.58397428594463 433.35 285.4334886429841 429.5 285.73253403158367 C 425.65 286.0315794201833 420.25 285.93333978726537 417.5 285.5142237362105 C 413.92009505905935 284.96862532821103 411.6479429645644 283.90103071905503 409.5 281.7553394194692 L 406.5 278.75848428646384 L 408.5 277.362258906893 C 409.6 276.59433494812896 411.5125 275.9736759836746 412.75 275.983016763661 C 413.9875 275.9923575436475 416.9125 275.1037472487115 419.25 274.0083272193589 C 422.5522750426064 272.46078573311195 423.9922079710931 270.9555755066633 425.7072689558569 267.2583272193589 L 427.91453791171375 262.5 L 426.4218890377464 257.5 C 425.60093215706434 254.75 424.48766112692874 252.05 423.94795341522286 251.5 C 423.4082457035169 250.95 422.97416666666663 250.1625 422.98333333333335 249.75 C 422.9925 249.3375 424.0125 248.83628192422498 425.25 248.63618205383327 C 426.4875 248.43608218344156 427.95 248.22530274267075 428.5 248.16778329656478 Z " class="even" fill="#ffffff"></path><path d="M 349 249.25646520306077 C 351.0188892031051 249.45313311190918 351.4492490352054 249.98111079689488 351.2362823432661 252 C 351.09123763206253 253.375 350.6983578844478 256.525 350.3632162374556 259 C 349.90141468333934 262.41037545376844 350.23963958486917 264.4685551522058 351.76003871373706 267.5 C 352.863432722684 269.7 354.8313124702988 272.0398357033289 356.1331048195476 272.6996348962864 C 357.4348971687964 273.3594340892439 360.75 274.61604627882247 363.5 275.4921064286832 C 366.25 276.36816657854393 369.0625 276.84083087521503 369.75 276.5424715323968 C 370.53479310115205 276.2018891994397 371.15745346520356 277.02345517746545 371.4230737592066 278.75 C 371.6557643267702 280.2625 371.39754839711856 281.95 370.84926058220293 282.5 C 370.3009727672873 283.05 367.7480895756443 283.9046678947162 365.1761868229963 284.3992619882582 C 362.60428407034834 284.89385608180027 356.225 285.3227009378421 351 285.35225055724004 C 344.9250521302976 285.3866069969361 340.17589470964094 284.88212854917526 337.8273550942076 283.9529885689818 C 335.80740039602176 283.1538448560418 333.55740039602176 281.91256468081735 332.8273550942076 281.1945881795941 C 332.0973097923934 280.47661167837083 331.5 277.9489534677009 331.5 275.5775699336609 C 331.5 273.0874715796847 331.9224662206566 271.4448953182403 332.5 271.68950461357065 C 333.05 271.92245222156106 333.98351326991343 271.525110432231 334.574473933141 270.80652285950384 C 335.1654345963686 270.08793528677677 336.4696155519093 266.575 337.4726538343426 263 C 338.475692116776 259.425 340.12967884686253 255.7125 341.1481799012016 254.75 C 342.16668095554076 253.7875 343.0175296353215 252.6625 343.0389547451589 252.25 C 343.0603798549963 251.8375 343.84787985499634 250.94040934137735 344.7889547451589 250.25646520306077 C 345.7300296353215 249.5725210647442 347.625 249.1225210647442 349 249.25646520306077 Z " class="even" fill="#ffffff"></path><path d="M 389 300.10354507724855 C 387.075 300.13632667946933 384.0375 300.8014396925423 382.25 301.5815739951886 C 380.4625 302.36170829783487 377.83609203093954 304.6875 376.41353784653234 306.75 C 374.473168848973 309.56325737981217 373.9390245054528 311.3742931121753 374.2752329962641 314 C 374.5217195130237 315.925 375.57312748208415 318.79795652972905 376.6116951497317 320.3843478438423 C 377.65026281737926 321.97073915795556 380.1875 324.10823915795555 382.25 325.1343478438423 C 384.3125 326.16045652972906 387.4625 326.9983178728031 389.25 326.9962619395625 C 391.0375 326.9942060063218 394.075 326.02281147506505 396 324.8376074256586 C 397.925 323.6524033762521 400.2726440992325 321.74158550344896 401.2169868871832 320.5913454860961 C 402.161329675134 319.4411054687433 403.2319091283536 316.925 403.5960523387823 315 C 404.07356625561545 312.47567917352706 403.7343123241068 310.5605590106757 402.379065451599 308.1299952362938 C 401.34557945321956 306.2764926162554 398.7 303.6988796031824 396.5 302.4019663183538 C 394.24375964507567 301.07189900468666 390.9742103105588 300.06992545278064 389 300.10354507724855 Z " class="odd" fill="#000000"></path><path d="M 394.5 308 C 395.325 308 396.45 308.9 397 310 C 397.55 311.1 397.9905476836146 313.0125 397.9789948524769 314.25 C 397.9674420213392 315.4875 396.95494202133915 317.52407138824196 395.7289948524769 318.77571419609325 C 394.5030476836146 320.02735700394453 392.4875 321.0398570039445 391.25 321.02571419609325 C 390.0125 321.011571388242 388.98533236900425 320.6625 388.9674052644539 320.25 C 388.94947815990355 319.8375 389.8641457908993 318.6 391 317.5 C 392.3815626543114 316.16204755190745 393.0543998386555 314.25866084017355 393.0325947355461 311.75 C 393.0092903408721 309.06884678420175 393.4275387136807 308 394.5 308 Z " class="even" fill="#ffffff"></path><path d="M 420.5 310.0337976290167 C 419.95 309.4468755997242 419.15 309.31166666666667 418.72222222222223 309.73333333333335 C 418.2944444444445 310.155 417.9525484323776 311.625 417.9624533065182 313 C 417.97235818065883 314.375 416.9386684272061 317.75 415.66536496551214 320.5 C 414.3795694935696 323.27697945086726 411.3828350523109 327.19101439257463 408.9251338812162 329.3034160170817 C 406.4913102465473 331.39529482647663 402.25 334.23488901394717 399.5 335.61362532257175 C 395.10273556196387 337.8182319186969 393.4753495446614 338.0793601580935 386 337.7798177282909 C 380.2014019759739 337.54746389236817 376.2287520113064 336.8224350242659 373.5 335.4985040127906 C 371.3 334.4311119547445 367.3625 331.4072881644841 364.75 328.77889558998976 C 361.1088023728107 325.1155475304411 359.6338700124794 322.6577655487028 358.43153524616446 318.25 C 357.5688796315549 315.0875 356.6688796315549 311.9375 356.43153524616446 311.25 C 356.1847369170981 310.53511537800244 352.3775559943234 313.74580764601706 347.53817065770227 318.75 C 342.8841645194385 323.5625 339.05100856051405 328.175 339.0200463045368 329 C 338.98908404855945 329.825 340.4344072525935 331.9313019041194 342.2318756468345 333.680670898043 C 344.0293440410755 335.43003989196666 347.8625 338.0175398919667 350.75 339.430670898043 C 353.6375 340.84380190411935 356.00711226607046 342.3375 356.0158050357121 342.75 C 356.02449780535375 343.1625 354.19739319607345 345.3 351.9555725706448 347.5 C 349.7137519452161 349.7 346.39300919841924 353.75 344.57614424442966 356.5 C 342.75927929044 359.25 340.6488838997203 363.14711560184935 339.886376709497 365.16025689299863 C 338.682721475214 368.33809978223513 338.6976967810722 369.0490156626809 340 370.55424365841435 C 340.825 371.50779508824377 344.7625 374.47317948639443 348.75 377.1439867654158 C 352.7375 379.81479404443706 356.675 382 357.5 382 C 358.66226901824217 382 358.9944679029491 380.7053645699283 358.97542971766137 376.25 C 358.9619160623751 373.0875 359.60297619507907 368.925 360.4000077903369 367 C 361.1970393855946 365.075 363.570596012647 361.8360180125629 365.67457807267544 359.80226225013973 C 367.77856013270394 357.76850648771665 372.2 354.8768080948606 375.5 353.37626582157077 C 379.5502928798072 351.5345580381298 383.7746583068916 350.5011512778274 388.5 350.19607506491946 C 394.5917668238365 349.802780087914 396.1811748821226 350.08511039471966 400.75 352.3720714934884 C 403.6375 353.8174321720698 406.85160255349643 356.2375 407.89245011888096 357.75 C 408.9332976842655 359.2625 410.31202691417093 362.525 410.95629285200414 365 C 411.6492800249259 367.6621665872164 411.8348789183383 371.3378334127836 411.4107382955066 374 C 411.01641735159967 376.475 410.03844764465936 380.075 409.2374722800837 382 C 408.43649691550803 383.925 406.1428939124355 387.73164864617155 404.14057671770036 390.4592192137146 C 401.8840826334561 393.53303132810015 396.0502214720658 398.66549164978795 388.7956698421476 403.9592192137146 C 382.35828825532883 408.65664864617156 373.58328825532885 414.96007985200384 369.2956698421476 417.9668441155641 C 365.00805142896644 420.9736083791243 358.1892945623291 426.5986083791243 354.1428768051758 430.4668441155641 C 350.09645904802244 434.33507985200384 345.5266927819481 439.3 343.9878406583438 441.5 C 342.44898853473956 443.7 340.4061576902408 447.75 339.4482165594576 450.5 C 338.4902754286744 453.25 337.7171267543696 457.975 337.73010839433573 461 C 337.7448355369517 464.43173948202724 338.5789944155449 468.3802368345207 339.9483366070753 471.5 C 341.15538048411594 474.25 342.89829542449513 477.30216763099577 343.8214809190291 478.2825947355461 C 344.7446664135631 479.2630218400965 345.8375 480.0505218400965 346.25 480.0325947355461 C 346.6625 480.01466763099575 347 479.1 347 478 C 347 476.9 346.6625 475.8299970927198 346.25 475.6222157615995 C 345.8375 475.4144344304792 345.1625 473.83943443047923 344.75 472.1222157615995 C 344.2766280759313 470.1515900516981 344.57699803660313 466.8791847511935 345.5643695094776 463.25 C 346.44352311807756 460.0185810680768 349.2196339677922 454.43390130842823 351.902318121967 450.5 C 354.52778662862346 446.65 359.78632034935856 440.86925152248466 363.5879486124894 437.6538922721881 C 367.3895768756202 434.43853302189154 372.3 430.8385330218916 374.5 429.6538922721881 C 377.96479102356517 427.78819561958716 380.10562692930444 427.5015135731168 390.5 427.5113120159299 C 399.5429252004284 427.5198364920899 403.85532594980367 427.98136703332466 408 429.384232679154 C 411.025 430.4081174351658 413.84665190017614 431.5280270279974 414.2703375559469 431.87292066322414 C 414.6940232117177 432.21781429845083 413.3428753216273 434.075 411.26778668907923 436 C 409.1926980565311 437.925 404.12718905972963 442.2 400.0111000295202 445.5 C 395.89501099931084 448.8 388.53229924553983 455.325 383.64951835447346 460 C 378.7667374634071 464.675 372.43471049623605 471.65 369.5783473163156 475.5 C 366.7219841363952 479.35 362.537259427576 486.1 360.27895907449516 490.5 C 358.02065872141435 494.9 355.8854470263359 500.075 355.534044196543 502 C 355.1826413667501 503.925 354.5812257194308 506.0803112239262 354.19756498027795 506.7895804976137 C 353.6706155019242 507.76374604451655 351.6655956067038 507.1656668798235 346 504.344321561476 C 341.33299119639486 502.0202510924934 336.4045971537529 498.5112777901013 332.95267554419075 495.0547410638623 C 328.4869857898624 490.58308081495437 326.9480050557429 488.1351180698585 325.05978393142004 482.5 C 323.0588883687328 476.52862165031576 322.79051008765225 474.177486449594 323.2334098054357 466.5 C 323.56158095760105 460.8112865672923 324.5357674831632 455.4764359866547 325.8812261607652 452 C 327.0519689891589 448.975 329.6569736991731 443.8 331.67012551635213 440.5 C 333.6832773335312 437.2 338.51546620418685 430.675 342.40832300669797 426 C 346.30117980920915 421.325 356.4708491785833 410.3 365.007588271974 401.5 C 373.54432736536455 392.7 382.19570639044036 383.475 384.2328749943646 381 C 386.2700435982888 378.525 387.9510338807076 375.9375 387.9684089552952 375.25 C 387.98578402988284 374.5625 387.775 374 387.5 374 C 387.225 374 381.7125 379.29347981167757 375.25 385.76328847039457 C 368.7875 392.23309712911157 358.325 402.5282334581342 352 408.6413692015559 C 345.675 414.75450494497755 337.8 423.28585965437145 334.5 427.5999352224311 C 331.2 431.9140107904908 326.66124469484083 439.05637446146824 324.41387709964636 443.4718544912698 C 322.1665095044518 447.8873345210714 319.52861983050246 454.875 318.55190004642554 459 C 317.3027745195516 464.27545656631196 316.95461950043307 468.4279376425296 317.3781029409854 473 C 317.7092343170702 476.575 318.27087478584497 481.525 318.62619287159595 484 L 319.2722257547796 488.5 L 317.6106542005559 487 C 316.6967898457329 486.175 315.5105390509075 483.3625 314.97454132316614 480.75 C 314.4385435954248 478.1375 313.99728702122377 473.8625 313.99397115827503 471.25 C 313.9906552953263 468.6375 314.4606686465017 463.8 315.0384452719981 460.5 C 315.61622189749454 457.2 317.00610367364385 452.25 318.1270714412188 449.5 C 319.2480392087937 446.75 321.31450777477056 442.25 322.7192238100562 439.5 C 324.12393984534174 436.75 327.6455792519895 431.35 330.5450891581622 427.5 C 333.444599064335 423.65 336.99468853542476 419.375 338.43417687169506 418 C 339.87366520796536 416.625 341.0398570039445 415.1625 341.02571419609325 414.75 C 341.011571388242 414.3375 340.6625 413.98129644002165 340.25 413.9584365333815 C 339.8375 413.9355766267413 336.175876093939 416.97307662674126 332.1130579865311 420.7084365333815 C 328.0502398791232 424.4437964400217 322.01726835009777 431.1 318.70645458869683 435.5 C 315.3956408272959 439.9 311.1738636453498 446.65 309.3247275177056 450.5 C 307.45643197031893 454.38989093334214 305.5443567609787 460.3879584190395 305.02117218298406 464 C 304.42702701529856 468.1019501359013 304.43391461459896 472.9902825511794 305.0398412674442 477.25 C 305.56792857034986 480.9625 306.9679400668471 486.5875 308.1509779263269 489.75 C 309.3340157858067 492.9125 311.96877143562995 497.975 314.0059904814897 501 C 316.04320952734946 504.025 320.1479499055238 508.75 323.12763576632153 511.5 C 326.10732162711923 514.25 331.685065977296 518.2625404076316 335.5226232111587 520.4167564614037 C 339.3601804450214 522.5709725151758 344.70848885635655 525.0459725151757 347.40775301412566 525.9167564614037 L 352.31550602825126 527.5 L 353.951299556698 533.5 C 354.85098599734374 536.8 356.9174971409872 542.136551504341 358.54354654257236 545.35900334298 C 360.17342441237344 548.5890423154596 364.2698771759083 553.9735028796958 367.67304662451625 557.35900334298 C 371.0682222680001 560.736551504341 376.2432222680001 564.7059841629057 379.17304662451625 566.1799648064571 C 382.1028709810323 567.6539454500086 385.2875 569.1164454500085 386.25 569.4299648064571 C 387.75345784996506 569.9196927415934 388.00670524230077 571.3735919787662 388.0475950016038 579.75 C 388.0737722524858 585.1125 388.31390085198115 600.75 388.58121411159345 614.5 C 388.8485273712057 628.25 389.052109620484 640.0625 389.0336191099897 640.75 C 389.01512859949537 641.4375 389.45 642 390 642 C 390.5938420985192 642 391.20389399512925 636.4153288546386 391.50200671804214 628.25 C 391.77811041296525 620.6875 392.71781519797923 606.85 393.59023957362865 597.5 C 394.4626639492781 588.15 396.49096585984853 573.75 398.09757715267403 565.5 C 399.70418844549954 557.25 401.62933157828246 548.475 402.3756730033028 546 C 403.1220144283231 543.525 404.8053094946337 538.1780435606635 406.1163287062153 534.1178745792522 C 407.4273479177969 530.0577055978409 408.95 526.4257312273887 409.5 526.0468204226917 C 410.05 525.6679096179946 413.875 523.8726570296993 418 522.0573702264796 C 422.125 520.24208342326 428.65 516.6171788027772 432.5 514.0020266254064 C 436.35 511.38687444803566 442.0049846077938 506.60408347566755 445.066632461764 503.37360224236613 C 448.1282803157343 500.14312100906477 452.2011669384816 494.8 454.1174916234248 491.5 C 456.03381630836805 488.2 458.43085003830856 482.35 459.44423324551497 478.5 C 460.79147766089716 473.3816094816485 461.1693835680701 469.2151884865697 460.85012611330205 463 C 460.46863508383336 455.5732708236802 459.91389623422003 453.50104705830154 456.4567520294479 446.58857651107934 C 453.6662251295891 441.0089900478133 450.8052275085146 437.10364474134695 446.75 433.33857651107934 L 441 428 L 445.0052931084098 423.25 C 447.20820431803514 420.6375 450.191727229235 416.25 451.63534402218727 413.5 C 453.28568006102955 410.35621272281327 454.2812678507284 406.82940854946804 454.31711582954216 404 C 454.353485348569 401.1294273351043 453.67272838183635 398.4555921731765 452.4370649157647 396.61565215615775 C 451.37167921209414 395.0292608420445 448.7 392.8002246977821 446.5 391.6622385022413 C 443.7017664274772 390.21480614886406 440.3969087519149 389.5493939855504 435.5 389.447458165232 C 430.0436734900083 389.33387730291673 428.5786455796903 388.9928166825656 428.85662921038386 387.90087181914845 C 429.05277527609496 387.1303923186168 430.2777265326203 385.15 431.5787431137735 383.5 C 432.8797596949267 381.85 433.95329713755945 379.825 433.9643818751796 379 C 433.9754666127998 378.175 434.6630153562744 376.4875 435.49226797178994 375.25 C 436.3215205873055 374.0125 437.27620852306285 370.1875 437.61379671791735 366.75 C 437.961843420659 363.2060059892208 437.74536294152136 358.6599159273299 437.11379671791735 356.25 C 436.4874473795837 353.8599905439697 434.313346271322 350.1400094560303 432.1460673173194 347.75 C 429.9582386118582 345.3373289017226 425.9593462963442 342.47715111440976 422.8960673173194 341.13400675857076 C 419.9282302927937 339.83271047578467 417.3723093984627 338.70771047578467 417.2162431076949 338.63400675857076 C 417.0601768169271 338.5603030413568 418.1014240742571 336.025 419.5301259017616 333 C 421.7915491486514 328.2118733313373 422.08713926263135 326.43872167322706 421.8138827940668 319.3004642956834 C 421.64124725733006 314.7907196583093 421.05 310.62071965830927 420.5 310.0337976290167 Z " class="odd" fill="#000000"></path><path d="M 417 345 C 418.1 345 420.4625 346.002649929713 422.25 347.22811095491784 C 424.0375 348.4535719801226 426.27225937028305 350.3660719801226 427.2161319339624 351.47811095491784 C 428.1600044976417 352.590149929713 429.61060890587146 355.525 430.43969728558415 358 C 431.466176665364 361.0642528916345 431.6906161491609 363.6166921953954 431.1431482423727 366 C 430.7009578888938 367.925 429.475353480664 371.6631928719354 428.419582890751 374.30709527096747 C 427.1462594260306 377.4958021693054 425.9950001150163 379.0015558027622 425 378.7796318345312 C 423.98312801636433 378.552829583571 423.60264724291767 377.48766266477736 423.8186957890275 375.4725365635637 C 423.99397847299264 373.8376414536037 424.16180073237217 369.8 424.1916341432043 366.5 C 424.22896312069463 362.3708836072553 423.61426004301404 359.25274426182983 422.22025631308134 356.5 C 421.10616509568166 354.3 419.0142714480602 351.375 417.5716037628114 350 C 416.1289360775625 348.625 414.9601429960555 346.9375 414.97428580390675 346.25 C 414.988428611758 345.5625 415.9 345 417 345 Z " class="even" fill="#ffffff"></path><path d="M 620.5 389.5106273230482 C 612.6960582143668 389.2126584931416 606.4019708928166 389.50835078364133 602.5 390.3562560785902 C 599.2 391.073352015539 594.925 392.3355785570849 593 393.16120394869216 C 591.075 393.98682934029944 587.7797899976994 396.2008142938648 585.6773111059987 398.08117051217084 C 583.4767648806644 400.0492334472189 581.4668542217214 402.98521093339406 580.9408207206062 405 C 580.4279656390415 406.96431369655994 580.3950522031704 409.8163025458058 580.8658073371496 411.5 C 581.3271407965136 413.15 582.4127444754622 415.85 583.2782599570353 417.5 C 584.1437754386083 419.15 587.9227414634644 423.4839067682296 591.6759622344931 427.1309039293991 C 595.4291830055218 430.7779010905686 601.65 435.6285190795512 605.5 437.9100550160271 C 609.35 440.191590952503 614.975 442.977362331863 618 444.1006580812715 C 621.025 445.22395383068 625.75 446.6459312376095 628.5 447.2606078744481 C 631.25 447.87528451128674 638 448.4056063636972 643.5 448.43910087980464 C 650.6726532824999 448.4827817072417 654.8429896908126 448.0052143244375 658.25 446.75 C 661.5755883643403 445.5247832341904 663.7511691519819 443.8754644981634 665.5049314275376 441.25 C 666.8826437126833 439.1875 667.9927744567426 436.6 667.9718886365583 435.5 C 667.9510028163742 434.4 666.9362836739822 431.78674777555705 665.7169572090208 429.6927728345712 C 664.4976307440594 427.5987978935853 661.7 424.4723771728269 659.5 422.7451712328858 C 657.3 421.01796529294467 653.7 418.80360041760855 651.5 417.82436039880554 C 649.3 416.8451203800025 646.4875 416.03404110076093 645.25 416.02196200049093 C 643.403948301173 416.00394289457273 643.1065507350428 416.4039483011731 643.5934896944736 418.25 C 643.9199090264341 419.4875 644.4228309113072 421.625 644.7110938830805 423 C 644.9993568548538 424.375 644.7322864923407 426.5125 644.117604188607 427.75 C 643.5029218848731 428.9875 641.3125 430.71071884074473 639.25 431.579375201655 C 636.6351457473336 432.6806647916826 634.2891778695108 432.94039549976276 631.5 432.4374061263962 C 629.3 432.04066677409355 625.925 431.0630905423314 624 430.26501450025796 C 622.075 429.46693845818453 619.2212877328079 427.618324542051 617.6584171840175 426.1569835755168 C 616.0955466352272 424.69564260898255 613.9164557944532 421.7 612.8159930934087 419.5 C 611.6348358093603 417.138678691754 611.0578500022228 414.57824323588835 611.4075759093911 413.25 C 611.7420107311232 411.9798316175432 613.6330526959053 410.1881600603115 615.75 409.135761459832 C 617.8125 408.1104302627396 621.975 406.69321016015664 625 405.98638345409205 C 628.7101187147322 405.1194707300449 634.0797625705358 404.8942399843527 641.5 405.294287776293 C 647.55 405.62046185956814 654.75 406.43930585184313 657.5 407.11394109245964 C 660.25 407.7885763330761 665.425 409.1405813860989 669 410.1183967658436 C 672.575 411.09621214558837 678.65 413.07379446891645 682.5 414.5130241510172 C 686.35 415.95225383311794 693.775 419.15742443003927 699 421.63562547750905 C 704.225 424.1138265249788 713 429.09502361482447 718.5 432.7049523438327 C 724 436.314881072841 732.223478087856 442.92055582098203 736.7743957507912 447.3842295619239 C 741.3253134137265 451.84790330286575 745.0378134137264 456.2875 745.0243957507912 457.25 C 745.0066904785623 458.5200665237094 744.3829426733406 458.883063499679 742.75 458.57360991539196 C 741.5125 458.33909536885756 721.6 458.01350264821514 698.5 457.85007053618665 C 675.4 457.6866384241581 655.825 457.93056893122684 655 458.39213832967266 C 653.8160933287858 459.05450813579193 654.9751022010004 460.68396965400865 660.5 466.1246402673563 L 667.5 473.0179251169566 L 674.25 473.0089625584783 L 681 473 L 681.0885466420552 524.25 L 681.1770932841105 575.5 L 689.0885466420552 582.75 C 693.4398459889248 586.7375 697.45 589.775 698 589.5 C 698.6494252873563 589.1752873563219 699 568.6666666666666 699 531 L 699 473 L 719.25 472.73769870802715 C 730.3875 472.5934329974421 739.95 472.7844772807875 740.5 473.1622415599058 C 741.05 473.5400058390241 739.925 474.62487558273295 738 475.57306321259216 C 736.075 476.52125084245137 731.35 479.8639292789195 727.5 483.0012375158547 C 723.65 486.1385457527899 718.8678663668588 490.68421159046886 716.8730363707975 493.1027171551412 C 714.8782063747362 495.5212227198135 711.8532330012151 500.2 710.1508733185286 503.5 C 707.6042817709131 508.4365314466735 707.0507399423734 510.6964021224923 707.0278369477311 516.25 C 707.0084135137791 520.9598618872457 707.5768051306889 524.1334100626414 708.9084171840175 526.75 C 709.9580466352271 528.8125 712.095546635227 531.7120586218947 713.6584171840175 533.1934636042106 C 715.2212877328079 534.6748685865264 719.2 537.1199690899481 722.5 538.627020278481 C 727.698437403518 541.001053995901 729.7023438947228 541.3550985881558 737.5 541.2771783108694 C 743.0817363875583 541.2214012361709 748.1141800392086 540.5819745118217 750.75 539.593621636599 L 755 538 L 756 540 C 756.55 541.1 757 542.675 757 543.5 C 757 544.325 757.7070185583111 547.3625 758.5711523518024 550.25 C 759.4352861452937 553.1375 761.3119850797831 558.65 762.7415944284454 562.5 C 764.1712037771077 566.35 766.914085377723 572.65 768.8368868742572 576.5 C 770.7596883707913 580.35 774.3393240637761 586.65 776.7916328586676 590.5 C 779.2439416535592 594.35 784.5185801308974 601.55 788.5130516971967 606.5 C 792.5075232634961 611.45 798.3011886360221 618.0875 801.3878636361433 621.25 C 804.4745386362645 624.4125 807.0008502145762 627.5625 807.001889365725 628.25 C 807.0029285168737 628.9375 804.8654285168736 630.4868796874383 802.251889365725 631.6930659720853 C 799.6383502145762 632.8992522567322 794.35 635.0710639095876 790.5 636.5193140895417 C 786.65 637.9675642694958 780.575 639.8181844397875 777 640.6318033568564 C 773.3449903042342 641.4636313374286 762.6215653113514 642.3586120847876 752.5 642.6765818044933 C 738.5413815745462 643.1150928303759 731.9180062162621 642.866953561538 723 641.5713887518959 C 716.675 640.652523343836 706.325 638.3828967007913 700 636.5277739895744 C 693.675 634.6726512783574 684.675 631.4924351853795 680 629.4606271162901 C 675.325 627.4288190472007 668.125 623.7787168851906 664 621.3492889784898 C 659.875 618.919861071789 653.575 614.7487480336882 650 612.0801488938214 C 646.425 609.4115497539547 640.1051490082616 603.6893166047174 635.9558866850257 599.36407522885 C 631.8066243617899 595.0388338529825 626.4323199597568 588.125 624.012988013841 584 C 621.5936560679252 579.875 618.4069376543471 573.125 616.931391539223 569 C 615.4558454240989 564.875 613.748071811645 559.925 613.1363390671031 558 C 612.5246063225612 556.075 612.0235466587797 550.675 612.0228731475884 546 C 612.0221996363972 541.325 612.6312200871027 535.475 613.3762519269341 533 C 614.1212837667654 530.525 615.6463605526885 526.7 616.7653114512077 524.5 C 617.8842623497269 522.3 620.7573199135085 518.512519711137 623.1498838151667 516.0833771358598 C 625.542447716825 513.6542345605827 630.2 510.3920895633461 633.5 508.8341660308895 C 637.6344792317414 506.8822864885916 641.0546006402155 506.00824607867327 644.5 506.02302474061844 C 647.7211903802637 506.03684168278386 650.2588259640653 506.659144390878 651.6329600302527 507.7722358455888 C 652.8060880468917 508.72250613051494 654.2685880468916 510.5125 654.8829600302527 511.75 C 655.4973320136137 512.9875 656.0064412977661 515.4625 656.0143139950355 517.25 C 656.022434126172 519.0936799878525 654.8162179140369 522.447212324512 653.2267530874348 525 C 651.2554588166669 528.1660315062991 648.9538254289827 530.2178259935663 645.4624390923991 531.9215091932844 C 642.7330975915796 533.2533392495908 638.25 534.6129973273445 635.5 534.9429715882927 C 631.2160732706749 535.4570026997345 630.5508146158934 535.8262803688085 630.854814360306 537.5214623950083 C 631.0499622584744 538.6096580777537 631.9988884826982 540.625 632.9635393030259 542 C 633.9281901233535 543.375 636.2435236612157 545.789763416068 638.1087249427198 547.3661409245955 L 641.5 550.2322818491909 L 648 549.8055779053869 C 651.6911293173035 549.5632672228048 656.4446027803283 548.4674813998273 659 547.2698229155859 C 661.475 546.1098448402876 664.7085663641259 543.8870981989314 666.1857030313909 542.3303859347944 C 667.6628396986558 540.7736736706574 669.8003396986559 537.3625 670.9357030313909 534.75 C 672.0710663641258 532.1375 672.9996449972367 528.0875 672.9992111049703 525.75 C 672.9987319384613 523.168594886934 671.8885238920496 519.1443366302108 670.1714521119414 515.5 C 668.6166185580419 512.2 665.9861811492516 507.925 664.326035647963 506 C 662.6658901466744 504.075 659.1008816935375 501.0567473998572 656.4037946409919 499.2927719996827 C 653.7067075884463 497.5287965995082 648.8 495.1594667696565 645.5 494.02759460001226 C 641.1163925125791 492.5240542007226 637.0080615431071 491.9737339731904 630.25 491.98482260032955 C 623.3345897535983 491.9961694052155 621.0834459531483 491.6845148981624 621.3306255694096 490.75 C 621.5651712599013 489.86325033439425 626.1421254732687 489.26947224232083 637.0806255694096 488.7067187010867 L 652.5 487.9134374021734 L 654.8448613541693 485.7067187010867 C 656.9274366233734 483.74683404317204 657.0734599007122 483.10850508464137 656.1503226785328 480 C 655.509825383031 477.8432360304288 652.3072201145015 473.6626364579713 647.8054613243635 469.1068299448979 C 643.7874575959636 465.04058641459176 639.375 461.015556338392 638 460.162318664454 C 635.972337089442 458.90407983875593 631.34343361291 458.5671817160581 613.5 458.3791741145743 C 601.4 458.25168228607856 567.7625 457.88921236227833 538.75 457.5736853950183 C 503.86754306998785 457.19431940292156 486 457.3387211956396 486 458 C 486 458.55 488.97679286977984 462.2625 492.6150952661775 466.25 L 499.2301905323549 473.5 L 513.3501062510085 474 L 527.470021969662 474.5 L 528.215042391535 478.5 C 528.6248036235651 480.7 529.6352704911691 488.125 530.4605243195439 495 C 531.2857781479187 501.875 531.9697640149019 508.0625 531.98049291284 508.75 C 531.9912218107779 509.4375 529.1875 511.74461884344487 525.75 513.8769307632108 C 522.3125 516.0092426829768 517.5696721559758 519.7217426829768 515.2103825688351 522.1269307632108 C 512.8510929816945 524.5321188434449 510.0450008893159 528.3 508.97462236354943 530.5 C 507.90424383778293 532.7 507.03195458202794 536.075 507.036201795205 538 C 507.0404490083821 539.925 507.96642482330594 543.525 509.0939258283691 546 C 510.22142683343225 548.475 512.6217664613478 552.3 514.4280138904036 554.5 C 516.3024061735592 556.783000078842 520.4567030096836 559.9057637485495 524.1060500625252 561.7749302576585 C 527.7243449546042 563.628192097222 532.0193726497524 565.0512108942384 534 565.0529712243488 C 535.9828465837957 565.0547335268565 539.0171534162043 564.0554870419855 541 562.7477576185963 C 543.9066535857996 560.8307578623802 544.6955625769756 559.5121656574977 545.6535740387632 554.9697166519061 C 546.2880397600829 551.9613724933577 546.8305033521015 543.65 546.8590486876933 536.5 C 546.8963760763006 527.1502823312879 547.274440299123 523.190199482005 548.2054746489301 522.3966862372771 C 548.9174635920185 521.7898636677795 553.4375 520.3273636677795 558.25 519.1466862372771 C 563.0625 517.9660088067747 567.9 517 569 517 L 571 517 L 570.989407156766 546.75 L 570.9788143135319 576.5 L 578.489407156766 582.75 C 582.874777444624 586.3993210151584 586.6241629563619 588.7919456812127 587.5 588.5 C 588.6452045861171 588.118265137961 588.8907023097986 586.8764811893708 588.5379124732535 583.25 C 588.283764333543 580.6375 588.0267120168375 555.1 587.9666851027969 526.5 L 587.8575452590867 474.5 L 605.6787726295433 473.74272338316763 C 615.4804476832945 473.3262212439098 625.7146287818084 473.10122124390983 628.4213972929075 473.24272338316763 C 631.1281658040066 473.3842255224254 633.493471472869 473.95 633.6776321126018 474.5 C 633.8794880246697 475.10284733914057 629.1448733686293 475.81874305053293 621.7562348196943 476.3025706030603 C 612.4485032300258 476.9120654328297 609.0513907847838 477.513494679536 607.6352369473514 478.8025706030603 C 606.6096172683946 479.7361567713771 605.400928688332 481.4 604.9492623249901 482.5 C 604.4975959616482 483.6 604.530494283302 486.075 605.022369706443 488 C 605.514245129584 489.925 607.0720050978885 492.625 608.4840585248974 494 C 609.8961119519064 495.375 611.0398570039446 496.8375 611.0257141960933 497.25 C 611.0115713882419 497.6625 609.7108603679243 499.4625 608.135245262054 501.25 C 606.5596301561839 503.0375 603.8850955689834 506.975 602.1918350682753 510 C 600.4985745675672 513.025 598.1297395172292 519.1 596.9277571786351 523.5 C 595.0797913964636 530.264699597056 594.8233960438372 533.198538054048 595.267300486382 542.5 C 595.650387598429 550.5271109121185 596.4959477261782 555.662101154823 598.3959612370156 561.5 C 599.8279934920095 565.9 603.2497335907238 573.4375 605.9998281230476 578.25 C 608.7499226553714 583.0625 612.9770058459851 589.5875 615.3933463244113 592.75 C 617.8096868028374 595.9125 623.5471868028375 602.1617408141697 628.1433463244113 606.6372018092659 C 632.739505845985 611.1126628043622 638.075 616.1289567598342 640 617.7845217103147 C 641.925 619.4400866607951 647.325 623.3364572982251 652 626.4431231268255 C 656.675 629.5497889554259 665.45 634.5426026162094 671.5 637.538264595233 C 677.55 640.5339265742567 685.425 644.1396349215048 689 645.5509498113399 C 692.575 646.9622647011751 699.1 649.2498089925433 703.5 650.6343815699361 C 707.9 652.0189541473288 714.875 653.8197403450938 719 654.6361286760805 C 723.125 655.4525170070672 728.975 656.6295453068681 732 657.2517471200827 C 735.025 657.8739489332972 746.5 658.3917886951847 757.5 658.4025021464993 L 777.5 658.4219811488895 L 787.5 655.7593864366547 C 793 654.2949593449256 800.65 651.9088252263018 804.5 650.4568661730463 C 808.35 649.0049071197907 814.0875 646.2831289817962 817.25 644.4084703108363 C 820.4125 642.5338116398764 823.225 641 823.5 641 C 823.775 641 826.8125 643.0734006788015 830.25 645.6075570640033 C 833.6875 648.1417134492052 839.875 652.077171533073 844 654.3530194725986 C 848.125 656.6288674121241 856.225 660.6585949627497 862 663.3079695851 C 867.775 665.9573442074502 878.575 669.749304705113 886 671.7345484687951 L 899.5 675.3440825845806 L 916.5 675.4220412922903 C 930.2831037459503 675.4852479367763 934.6353751484882 675.1537103281887 939.5 673.6699986708054 C 942.8 672.6634979397483 947.525 671.117510348775 950 670.2344706908648 C 952.475 669.3514310329547 956.975 667.0918065080016 960 665.2130828576358 C 963.025 663.33435920727 967.4537136623236 659.9303467982432 969.8415859162747 657.6486108375764 C 972.2294581702257 655.3668748769094 976.1432561976815 650.8 978.5389148661764 647.5 C 980.9345735346712 644.2 983.9617208888209 638.8 985.2659089865089 635.5 C 986.5700970841968 632.2 988.2400873054353 626.575 988.9769983670387 623 C 989.8854741666912 618.5926825461265 990.092632593134 613.7634151319884 989.6204451116828 608 C 989.2374297596336 603.325 987.9114900903046 596.575 986.6739125131738 593 C 985.4363349360431 589.425 983.1175645027565 584.25 981.5210893280924 581.5 C 979.9246141534284 578.75 976.5667655740632 574.3076226371928 974.0592035961698 571.6280503048729 C 971.5516416182764 568.9484779725528 967.25 565.4652008002887 964.5 563.8874343665079 C 961.75 562.3096679327272 958.7125 561.0145452955344 957.75 561.009384061635 C 956.7875 561.0042228277358 956.0195862827867 561.3375 956.0435250728592 561.75 C 956.0674638629317 562.1625 958.0924638629318 564.1875 960.5435250728592 566.25 C 964.288244408918 569.4010774187683 965.3571726966084 571.1579169903813 967.2363451542049 577.25 C 968.9163498418444 582.6964016712645 969.4740643392811 586.9877218327385 969.4782135580481 594.5 C 969.481251345349 600 968.9149596525452 606.975 968.2197875740395 610 C 967.5246154955338 613.025 965.677741365814 618.2 964.1156228413288 621.5 C 962.5535043168437 624.8 959.4838413229205 629.75 957.2941495214998 632.5 C 955.1044577200789 635.25 950.2049910680693 639.554532527068 946.4064458503673 642.0656278379289 C 942.6079006326653 644.5767231487898 937.025 647.6177407981764 934 648.823444836566 C 930.975 650.0291488749555 925.125 651.7241234904014 921 652.5900550931126 C 916.641741214142 653.5049530362563 908.6826634716489 654.1580693632053 902 654.1491817423947 C 894.5237605142078 654.1392387036766 886.4762394857922 653.3814107041607 879 651.983291907833 C 872.675 650.80046444443 863.675 648.3596266877968 859 646.5592080042037 C 854.325 644.7587893206106 847.575 641.8641726607805 844 640.1267265379146 C 840.425 638.3892804150487 836.4414756721904 636.1874935301182 835.1477237159788 635.2338667936247 L 832.7954474319577 633.5 L 838.0345151620235 628 C 840.9160024135597 624.975 844.3370267413692 620.3625 845.6367914460446 617.75 C 846.9365561507201 615.1375 848.4893973723819 609.7375 849.087549716404 605.75 C 849.857859062817 600.6148391174613 849.8675922104042 596.7497883165838 849.1209164720234 592.5 C 848.5411158435918 589.2 846.9751476895121 584.025 845.6409872407353 581 C 844.3068267919583 577.975 841.5930235495869 573.475 839.6103133687985 571 C 837.6276031880102 568.525 834.091673969708 565.0226837007813 831.7526928836826 563.217074890625 C 829.4137117976572 561.4114660804687 826.9375 559.9489660804687 826.25 559.967074890625 C 825.5625 559.9851837007812 824.9869298588328 560.5625 824.9709552418508 561.25 C 824.9549806248688 561.9375 826.4174806248687 565.65 828.2209552418508 569.5 L 831.5 576.5 L 831.5 587.5 L 831.5 598.5 L 828.1545712935844 605.5 C 826.3145855050558 609.35 823.1645855050557 614.432887415197 821.1545712935844 616.7953053671046 C 819.144557082113 619.1577233190121 816.825 621.0809904287622 816 621.0692322776604 C 815.175 621.0574741265586 810.5831524650783 617.0995867113616 805.7958943668407 612.2739269105559 C 801.0086362686031 607.4482671097502 795.1135052997738 600.8 792.6956033249977 597.5 C 790.2777013502216 594.2 786.6964408840563 588.575 784.7372467335192 585 C 782.7780525829822 581.425 779.6971617962786 574.45 777.8908227630668 569.5 L 774.6065699754091 560.5 L 774.5880128429214 546 L 774.5694557104339 531.5 L 777.4072532404693 524.5 C 779.1718723853066 520.1472109503502 780.0096284824032 516.6491107659589 779.6225253852524 515.25 C 779.2801364233635 514.0125 777.9875 511.96314376023935 776.75 510.6958750227542 C 775.5125 509.428606285269 773.0375 507.40360628526895 771.25 506.1958750227542 C 769.4625 504.9881437602394 767.4375 503.9995702531489 766.75 503.99904500699745 C 766.0625 503.9985197608461 762.3472344564473 507.0360197608461 758.4938543476605 510.74904500699745 C 753.6319360043889 515.4338736622682 748.8881688976555 518.7981893936042 742.9938543476605 521.7417629592951 C 736.6023811815909 524.9336135634474 733.324289868438 525.9855647337923 729.75 525.9917629592951 C 726.4112747625792 525.9975526889126 724.8514447618338 525.5543342855013 724.5 524.5 C 724.225 523.675 724.9150762767581 520.4125 726.0335028372402 517.25 C 727.1519293977224 514.0875 728.8394293977224 510.30733891688675 729.7835028372402 508.84964203752617 C 730.7275762767581 507.3919451581656 733.7826795858753 503.79194515816556 736.572621301945 500.84964203752617 C 739.3625630180146 497.9073389168868 744.3125630180147 493.2255569245931 747.572621301945 490.44568205465123 C 750.8326795858752 487.6658071847094 755.5320998882584 484.06580718470946 758.0157775294631 482.44568205465123 C 760.4994551706678 480.82555692459306 766.0114638248251 477.925 770.2646856498126 476 C 774.5179074748 474.075 777.9983075865417 471.9375 777.9989081203495 471.25 C 777.9995086541572 470.5625 775.6375 467.46647190089135 772.75 464.36993755753633 C 769.8625 461.2734032141813 764.575 455.91321554894034 761 452.45840941255636 C 757.425 449.0036032761724 751.575 443.82178150649446 748 440.94324992438317 C 744.425 438.0647183422718 737.225 432.89022251315083 732 429.4443703041143 C 726.775 425.99851809507777 717.775 420.6888999244936 712 417.6452188139274 C 706.225 414.6015377033612 697 410.12289605129473 691.5 407.69268180933534 C 686 405.2624675673759 678.125 402.1012683414767 674 400.6677946406704 C 669.875 399.2343209398642 662.45 396.89294933634125 657.5 395.4647466328417 C 652.55 394.03654392934214 644.9 392.2156933010527 640.5 391.4184119033096 C 636.1 390.62113050556655 627.1 389.7626274444489 620.5 389.5106273230482 Z " class="odd" fill="#000000"></path><path d="M 428.5 395.9992053403632 C 432.21604330697585 396.0412463153547 434.3345718504657 396.6905896316557 436.75 398.52788609661036 C 438.5375 399.88754874347467 440.01105662705237 401.7875 440.0245702823386 402.75 C 440.03808393762483 403.7125 439.38891013419476 406.075 438.5819618302718 408 C 437.77501352634874 409.925 435.09850760933887 413.75 432.6341709035831 416.5 L 428.15355871129987 421.5 L 420.32677935564993 419.6955594597579 C 416.0220507100425 418.7031171626247 409.575 417.9510683346227 406 418.02433984197546 C 402.425 418.0976113493283 398.375 418.10592627886473 397 418.0428174631676 L 394.5 417.92807416189993 L 397.5 415.4690042258902 C 399.15 414.1165157610849 400.95 412.9988331327642 401.5 412.9852650518443 C 402.05 412.97169697092437 405.425 410.49737696696906 409 407.48677615416585 C 412.575 404.47617534136265 417.3 400.6471349429446 419.5 398.97779749101466 C 422.7593959922117 396.5046012180741 424.4257550097354 395.95311189698924 428.5 395.9992053403632 Z " class="even" fill="#ffffff"></path><path d="M 919.75 399.11761884630016 C 917.4125 399.1823092117652 913.475 399.5690974497045 911 399.9771482639429 C 908.525 400.3851990781814 904.475 401.94103087832855 902 403.43455226426994 C 899.525 404.92807365021133 895.6057114771553 408.253785412272 893.290469949234 410.8250228466271 C 889.7474382503035 414.7598070259589 888.7974533202076 415.32634256896836 887.290469949234 414.4031988264438 C 886.3057114771552 413.79995818098797 885.05 411.2052893707675 884.5 408.63726813706506 C 883.95 406.0692469033626 883.05 404.1313857477117 882.5 404.3309100133964 C 881.95 404.53043427908113 880.4616154836751 406.67510308930156 879.1924788526114 409.09684070277524 C 877.4559542394713 412.41043741839394 877.0474088968521 414.36607564664416 877.5414582925623 417 C 877.9025336155989 418.925 879.0055337809526 422.075 879.992569771126 424 C 880.9796057612995 425.925 882.7497326443174 428.4 883.9261850667214 429.5 C 885.4493197327389 430.92415290300954 886.048522232105 432.65169419398086 886.0073017468186 435.5 C 885.9754634984681 437.7 887.0332320371948 441.975 888.3578984995446 445 C 889.6825649618944 448.025 891.7336144378176 451.4 892.9157862238183 452.5 C 894.097958009819 453.6 895.0505218400965 455.0625 895.0325947355461 455.75 C 895.0069114400505 456.7349479933344 883.0726597000476 456.99740145091505 838.75 456.9877450980392 C 807.8125 456.9810049019608 781.0259733606557 457.3185049019608 779.2243852459017 457.7377450980392 C 777.4227971311476 458.15698529411765 776.0727971311476 458.815464244666 776.2243852459017 459.2010316548132 C 776.3759733606557 459.58659906496047 779.0875 462.6240990649605 782.25 465.9510316548132 L 788 472 L 819.5 472 L 851 472 L 850.9936466895308 474.75 L 850.9872933790617 477.5 L 843.7436466895308 477.11049536350873 C 837.4552207502392 476.7723547604992 835.6428440476634 477.09785121931964 830 479.5788057993931 C 826.425 481.15060408919965 821.025 484.13811293133165 818 486.2177143374641 C 814.975 488.2973157435965 810.0953586422704 492.3615760474486 807.1563525383787 495.24940390157974 C 804.2173464344869 498.1372317557109 799.8714600690537 503.425 797.4988272818603 507 C 795.126194494667 510.575 792.2433358523966 516.3125 791.0924747434817 519.75 C 789.8961167236707 523.3233944445976 789 528.5695413331863 789 532 C 789 535.8899683096006 789.6638470359211 539.3187698064996 790.887688338355 541.75 C 791.9259169244503 543.8125 794.9634169244504 547.5719966061346 797.637688338355 550.1044369025213 C 801.3366378738176 553.6072110821358 804.1748278288112 555.2273256499751 809.5 556.8757609632905 C 813.35 558.0675489003268 817.625 559.0277113002683 819 559.0094551853826 C 820.375 558.9911990704969 823.75 558.3699031962773 826.5 557.6287976871166 C 829.25 556.887692177956 833.525 555.32897421301 836 554.1649799872368 C 838.475 553.0009857614635 842.8625 549.7876858083372 845.75 547.0243134247337 C 848.6375 544.2609410411301 851.0301007421276 542.3375 851.0668905380613 542.75 L 851.1337810761227 543.5 L 851.0668905380613 559.25 L 851 575 L 854.75 579.1638865827002 C 856.8125 581.4540242031853 860.3 584.5969755107602 862.5 586.1482228217554 C 864.7 587.6994701327507 866.9160381625103 588.6382211705355 867.4245292500229 588.2343362390552 C 867.9854375484394 587.7888173003046 868.0837635212514 564.786700280447 867.6745292500229 529.75 L 867 472 L 874.75 471.99289095657196 C 879.0125 471.98898098268654 885.5418529634553 471.6514809826865 889.2596732521229 471.24289095657196 C 894.928579577981 470.6198757476917 896.0219349327832 470.7420457806719 896.0353874482162 472 C 896.0442099673999 472.825 894.895869583446 474.625 893.4835199283186 476 C 892.0711702731913 477.375 890.0345988849494 480.8625 888.9578057322254 483.75 C 887.8810125795014 486.6375 887.0115713882419 490.9125 887.0257141960933 493.25 C 887.0458295199004 496.5746276053352 886.4734314716723 498.044336702744 884.3968355749073 500 C 882.9368095254038 501.375 881.1252381371618 503.9625 880.371121378814 505.75 C 879.6170046204663 507.5375 878.9983540641803 510.9125 878.9963423648448 513.25 C 878.9943306655096 515.5875 879.8419869719908 519.075 880.8800230459142 521 C 881.9180591198377 522.925 883.2697050556575 524.6125 883.8836806810693 524.75 C 884.4976563064812 524.8875 884.9965205873054 523.7625 884.9922679717899 522.25 C 884.9880153562744 520.7375 885.6630153562744 518.4875 886.4922679717899 517.25 C 887.3215205873055 516.0125 888.45 515 889 515 C 889.55 515 892.8125 517.4848651414109 896.25 520.5219225364685 C 899.820501010767 523.6764873361226 904.4292392722479 526.682486955713 907 527.533493616709 C 909.695652859514 528.4258436959734 915.1086942809721 529.0081509482171 920.5 528.9857544241227 C 927.1252542768295 528.958231839655 931.215094133401 528.3597124194433 936 526.7174379768722 C 939.575 525.4904271858816 945.425 522.7887258544969 949 520.713657240462 C 952.575 518.638588626427 957.525 515.4603844200963 960 513.6509812263938 C 962.475 511.8415780326913 967.65 508.61058793154024 971.5 506.47100322383596 C 975.35 504.33141851613163 980.525 501.57521435092156 983 500.34610507892467 C 985.475 499.11699580692783 990.425 497.341925235942 994 496.4015038100673 C 999.2470082352593 495.02125235099635 1001.1264958823704 494.91413495749447 1003.75 495.8458233360567 C 1005.8730239009964 496.599775534064 1007.1733809383082 496.65323812338346 1007.5 496 C 1007.775 495.45 1006.3125 494.2639473588283 1004.25 493.36432746406285 C 1002.1875 492.46470756929745 998.7 491.50613203759036 996.5 491.2341596158249 C 994.3 490.9621871940595 990.025 491.3110061977713 987 492.00931295740673 C 983.975 492.7076197170422 977.45 495.29014561989277 972.5 497.74825940818585 C 967.55 500.2063731964789 961.025 503.7221475244236 958 505.56109124806295 C 954.975 507.4000349717023 948.7875 510.2760846005588 944.25 511.95231264552183 C 939.6858626574412 513.6383809683118 932.7609085737638 515.3064550221035 928.75 515.6859327564064 L 921.5 516.3718655128127 L 914.75 513.1859327564064 C 910.4531610687632 511.1578675860316 907.1822796437456 508.81884837429925 905.75 506.75 C 904.0204052089603 504.2516964129425 903.5 502.09530626500435 903.5 497.42673084488297 C 903.5 492.5992850053525 904.0128306039824 490.5964919797704 906 487.6633069675373 C 907.375 485.63372187031155 910.1875 482.8541929901142 912.25 481.48657612265436 C 914.3125 480.11895925519445 916.5086312477528 479.3375 917.1302916616727 479.75 C 917.752565421027 480.16290698263236 918.0457838337741 481.84837206947054 917.7826748266446 483.5 C 917.5198251534592 485.15 917.0111939057065 487.2875 916.652383164972 488.25 C 916.1674595306677 489.550794388324 916.5133778419155 490 918 490 C 919.1 490 920.6703570069509 488.9875 921.4896822376688 487.75 C 922.4882624899759 486.2417551469183 922.6476024844992 485.17033104581407 921.9730155710022 484.5 C 921.4195236736178 483.95 920.9741666666669 482.0375 920.9833333333335 480.25 C 920.9950094032984 477.9731663568289 920.0268336431711 475.92231957727984 917.75 473.4009633612352 C 915.9625 471.42149320991456 912.475 468.935352924859 910 467.87620717222285 C 907.525 466.81706141958665 904.7125 465.9616279070308 903.75 465.97524381098765 C 902.7875 465.98885971494445 902 465.325 902 464.5 C 902 463.57492667404466 904.0122433591563 462.34264894106155 907.25 461.28495244189844 C 910.1375 460.34167628494265 913.9284375981225 458.2041762849426 915.6743057736055 456.53495244189844 C 917.7407505734084 454.55922542046335 919.1367861828504 452.0102245682131 919.6743057736055 449.23141137171336 C 920.1284375981226 446.88368762615573 920.8375 444.9711876261557 921.25 444.98141137171336 C 921.6625 444.991635117271 922 444.325 922 443.5 C 922 442.675 920.875 441.1 919.5 440 C 918.125 438.9 916.55 438.225 916 438.5 L 915 439 L 916 441 C 916.55 442.1 917 444.35 917 446 C 917 447.65 916.55 449.225 916 449.5 C 915.45 449.775 913.3125 448.9046503735992 911.25 447.56588971910946 C 909.1875 446.22712906461965 906.2769344167073 442.9646290646196 904.7820764815717 440.31588971910946 C 903.2872185464361 437.66715037359927 902.0386619193837 434.15 902.007506199233 432.5 C 901.9763504790824 430.85 902.6817295961364 427.7 903.5750153482419 425.5 C 904.4683011003474 423.3 905.9418577273998 420.66461564902886 906.8495856305806 419.64359033117523 C 907.7573135337612 418.6225650133216 910.1875 416.9350650133216 912.25 415.89359033117523 C 914.3125 414.85211564902886 917.125 414 918.5 414 C 919.875 414 921.1865529301892 413.6625 921.4145620670872 413.25 L 921.8291241341743 412.5 L 929.4145620670872 413.25 C 933.5865529301892 413.6625 940.0375 415.141096490702 943.75 416.53576997933783 C 947.4625 417.9304434679736 954.325 421.2559569961401 959 423.9258000419301 C 963.675 426.5956430877201 969.8625 429.95454659701807 972.75 431.3900300625923 C 975.6375 432.82551352816654 981.0375 434.70195955198596 984.75 435.5599101155244 C 989.4707855332862 436.6508732424273 993.1534340099149 436.8908173023528 997 436.35806251935577 C 1000.025 435.9390957779246 1003.3106235774123 434.8996362259386 1004.3013857275829 434.04815240383135 L 1006.1027714551658 432.5 L 998.3013857275829 432.3186763507214 L 990.5 432.13735270144275 L 980.5 427.2482611101005 C 975 424.5592607348622 965.775 419.1610488117401 960 415.25223461427356 C 954.225 411.34342041680696 946.125 406.5995861753126 942 404.71038074428606 C 937.875 402.8211753132595 932.1375 400.76348287855706 929.25 400.1377308893916 C 926.3625 399.5119789002262 922.0875 399.0529284808351 919.75 399.11761884630016 Z " class="odd" fill="#000000"></path><path d="M 922.5 403 C 922.775 403 922.9714761648114 404.6875 922.9366136995809 406.75 C 922.8810031824283 410.03997650822396 922.758330251288 410.22398590493435 921.9366136995809 408.25 C 921.4214761648115 407.0125 921.225 405.325 921.5 404.5 C 921.775 403.675 922.225 403 922.5 403 Z " class="even" fill="#ffffff"></path><path d="M 227 411.03214598859586 C 225.075 411.07178010064786 220.8 412.1195695469436 217.5 413.3605669803642 C 214.2 414.60156441378473 208.125 417.9608219011521 204 420.8255836189584 C 199.875 423.6903453367647 192.675 428.71406320907096 188 431.9894011129723 C 183.325 435.26473901687365 176.125 440.45433322701865 172 443.5218326910723 C 167.875 446.58933215512593 162.7 450.31430594402025 160.5 451.79955222194855 C 158.3 453.28479849987684 153.9125 456.4125 150.75 458.75 C 147.5875 461.0875 145 463.45 145 464 C 145 464.55 145.7875 465.8714422291952 146.75 466.93653828710046 C 147.7125 468.0016343450057 150.75 470.06751127952043 153.5 471.52737591935534 C 156.25 472.9872405591903 160.1820759626508 475.1532983299951 162.23794658366842 476.3408376322549 L 165.97589316733684 478.5 L 168.62155418575296 477 C 170.07666774588182 476.175 172.72806946851782 474.15 174.51355801383292 472.5 C 176.29904655914802 470.85 181.07642313821 466.770368350259 185.12995041174838 463.4341518894644 C 189.18347768528676 460.0979354286698 194.2953788245051 456.0479354286698 196.4897307211224 454.4341518894644 C 198.68408261773973 452.820368350259 205.26361361911106 447.45 211.1109107241698 442.5 C 216.9582078292285 437.55 223.37532900472343 432.2625 225.37118000304736 430.75 C 227.36703100137132 429.2375 230.3629063403112 426.0875 232.02868075624718 423.75 C 233.69445517218313 421.4125 235.04445517218312 418.4875 235.02868075624718 417.25 C 235.01290634031122 416.0125 233.9875 414.0910188925037 232.75 412.98004198334155 C 231.34663382121974 411.7201571997262 229.1830140558804 410.9871995866728 227 411.03214598859586 Z " class="odd" fill="#000000"></path><path d="M 888.0728670018432 417.25 C 890.1820076339534 418.7943448803353 890.8166068778913 419.8136244976288 890.0963034640331 420.5 C 889.3883597568389 421.1745979657004 888.3778361900529 420.84919593140086 886.9908417266437 419.5 C 885.8600245678889 418.4 884.9494781599035 416.9375 884.9674052644539 416.25 C 884.9880745837075 415.4573367482759 886.1242680020058 415.8232061468966 888.0728670018432 417.25 Z " class="even" fill="#ffffff"></path><path d="M 258.75 421.0391418106352 C 256.9625 421.0606698064846 254.15 421.6591308830436 252.5 422.3690553140997 C 250.85 423.07897974515583 246.125 426.15909996588266 242 429.21376691571487 C 237.875 432.2684338655471 231.9723979197946 436.95747278898807 228.8831064884324 439.63385341225035 C 225.7938150570702 442.3102340355127 218.22174029817404 448.55 212.05627369088538 453.5 C 205.8908070835967 458.45 197.80453329153545 464.975 194.08677637519372 468 C 190.369019458852 471.025 184.10359421774814 476.0875 180.16360917274073 479.25 L 173 485 L 174.20536866744482 487.25 C 174.86832143453944 488.4875 176.6528644909948 489.95 178.17101990401227 490.5 C 179.94520962837274 491.14275655840714 181.6580602267838 493.01828462676974 182.96565123656745 495.75 C 184.35629235936122 498.6552170788558 185.63283902171491 500 187 500 C 188.1 500 194.2875 496.40410390240106 200.75 492.0091197831135 C 207.2125 487.6141356638259 214.09659086644928 482.7766356638259 216.0479797032206 481.2591197831135 C 217.9993685399919 479.74160390240104 223.84936853999193 475.07879657283235 229.0479797032206 470.8973257174051 C 234.24659086644925 466.71585486197796 243.40877477832737 458.39085486197797 249.40838839628307 452.3973257174051 C 255.40800201423878 446.40379657283233 262.04550201423876 439.3625 264.15838839628304 436.75 C 267.1819352672862 433.0115045145717 268 431.1482067245712 268 428 C 268 424.55555555555554 267.5833333333333 423.7916666666667 265 422.5 C 263.35 421.675 260.5375 421.0176138147858 258.75 421.0391418106352 Z " class="odd" fill="#000000"></path><path d="M 182.5 441.0667983474257 C 183.19522117902582 441.84067821103673 182.44281206039184 442.9906610649983 180.0312946082375 444.8399701520995 C 178.1235066427681 446.3029865684448 174.29850664276807 449.8974412007418 171.5312946082375 452.8276471127596 C 168.76408257370687 455.75785302477743 164.475 459.4598709013447 162 461.0543535051313 C 159.525 462.6488361089179 156.9375 463.9638949081761 156.25 463.9767063923717 C 155.5625 463.9895178765673 155 463.325 155 462.5 C 155 461.675 156.4625 460.03113121874065 158.25 458.84695826386815 C 160.0375 457.6627853089956 163.75 454.57813020314313 166.5 451.9921691397516 C 169.25 449.40620807636 173.75 445.63964954551614 176.5 443.62203907120966 C 180.07838601654876 440.9966612137185 181.78432279669025 440.27014802491544 182.5 441.0667983474257 Z " class="even" fill="#ffffff"></path><path d="M 948.5 442.94803174209216 C 943.3471424455877 440.56154041552116 942.2176191848041 440.35196705656017 940.5 441.4637003167038 C 939.4 442.17567803387027 935.9125 444.16260907417995 932.75 445.87910262850323 C 929.5875 447.59559618282645 926.2125 448.8875 925.25 448.75 C 923.8221393034826 448.5460199004975 923.4539800995025 449.3743781094527 923.25 453.25 C 923.0917636893647 456.25648990207094 922.5411815531766 457.9964625620874 921.75 457.9903626425193 C 921.0625 457.98506209590494 919.810646448634 458.7725620959049 918.9681032191868 459.7403626425193 C 918.1255599897395 460.7081631891337 917.1130599897394 462.0625 916.7181032191868 462.75 C 916.3098797595701 463.4605932836491 916.9709320894317 465.0899097607645 918.25 466.52571419609325 C 919.4875 467.9148570039445 921.0625 469.0398570039445 921.75 469.02571419609325 C 922.51871497378 469.0099006860328 923.2364454456973 471.0213971101238 923.6140993195716 474.25 L 924.2281986391431 479.5 L 923.6140993195716 481.75 C 923.2763446938072 482.9875 923.45 484.225 924 484.5 C 924.55 484.775 924.9923575436475 484.6625 924.983016763661 484.25 C 924.9736759836745 483.8375 925.5361759836745 482.68796783022077 926.233016763661 481.6954840671572 L 927.5 479.89096813431445 L 932.5 482.22271364928133 C 935.25 483.50517368251315 938.7375 485.32970585229236 940.25 486.2772295821241 C 942.6654537387725 487.7904194900895 943.2737196682771 487.8275807978431 945.25 486.5826988345598 C 946.4875 485.8031831935677 952 483.259071229966 957.5 480.9291166932228 C 963 478.59916215647957 975.6 474.2737543872678 985.5 471.31709942830776 C 995.4 468.3604444693478 1005.195864882729 465.6170564329494 1007.2685886282866 465.2206815696448 C 1009.3413123738443 464.82430670634017 1011.0321977072389 464.05 1011.0261115913858 463.5 C 1011.0200254755326 462.95 1007.7491605928036 461.9193993325879 1003.7575229630991 461.20977629463977 C 999.7658853333946 460.50015325669165 989.75 457.8822686013329 981.5 455.39225483828704 C 973.25 452.90224107524114 963.8 449.7088870669044 960.5 448.29591259753875 C 957.2 446.8829381281731 951.8 444.47639174322217 948.5 442.94803174209216 Z " class="odd" fill="#000000"></path><path d="M 428 440.9866890175802 C 428.825 440.9868655150607 431.00719842437803 442.6774326896198 432.8493298319512 444.74350496104506 C 434.6914612395244 446.8095772324703 437.2745652274576 450.75 438.58956091624725 453.5 C 440.53985088779507 457.5785665439658 440.97624291455776 460.0664368752582 440.9575671130315 467 C 440.9369623864563 474.64969429430266 440.6128227418969 476.0950633643426 437.7173360287355 481.44849424509454 C 435.947801212931 484.72016607989656 431.6875 490.23266607989655 428.25 493.69849424509454 C 423.7049396912052 498.28101003585664 419.74947960760915 501.08034631333453 413.75 503.96035384311335 C 409.2125 506.1385484568257 402.575 508.70759740838196 399 509.66935151323844 C 394.5772347420234 510.85917323118963 388.6651050916491 511.4310986424225 380.5 511.4589976701251 L 368.5 511.5 L 368.5910059218338 508.5 C 368.64105917884245 506.85 370.32855917884245 502.2375 372.3410059218338 498.25 C 374.3534526648252 494.2625 377.67221461596847 488.6375 379.71603247992994 485.75 C 381.75985034389146 482.8625 385.24735034389147 478.31064416950665 387.46603247992994 475.63476482112594 C 389.68471461596846 472.9588854727452 397.575 465.5193314626872 405 459.1024225765527 C 412.425 452.6855136904182 420.3 445.9843023463523 422.5 444.2108418119619 C 424.7 442.43738127757155 427.175 440.9865125200997 428 440.9866890175802 Z " class="even" fill="#ffffff"></path><path d="M 239.5 443.3031043948664 C 240.05 443.502549907281 240.645410392312 444.52844276442386 240.82313420513776 445.5828662996283 C 241.0008580179635 446.6372898348327 240.55085801796352 447.8306092514673 239.82313420513776 448.23468722548296 C 239.09541039231198 448.63876519949855 238.1625 448.9762651994985 237.75 448.98468722548296 C 237.3375 448.99310925146733 236.9875 447.9875 236.97222222222223 446.75 C 236.95694444444445 445.5125 237.29444444444445 444.14910714285713 237.72222222222223 443.7202380952381 C 238.15 443.29136904761907 238.95 443.1036588824518 239.5 443.3031043948664 Z " class="even" fill="#ffffff"></path><path d="M 270.25 450.07607792550334 C 268.1875 450.1179207845302 265.15 450.6804207845302 263.5 451.32607792550334 C 261.85 451.9717350664765 259.15 453.3758724898258 257.5 454.44638331072395 C 255.85000000000002 455.5168941316221 252.025 458.66689413162214 249 461.44638331072395 C 245.975 464.22587248982575 238.325 471.28800138593994 232 477.14000307986646 C 225.675 482.99200477379304 217.575 490.2421195275773 214 493.251369199387 C 210.425 496.26061887119675 204.35 500.9514476207654 200.5 503.67543308731734 L 193.5 508.6281339355936 L 193.18768457834193 516.0640669677969 C 193.01591109642996 520.1538301355085 192.34091109642998 524.0995553519856 191.68768457834193 524.8323452266345 C 191.03445806025385 525.5651351012835 189.6 525.9308550637908 188.5 525.6450562544284 C 187.4 525.359257445066 185.375 525.7463107445185 184 526.5051746976562 C 181.776982203903 527.7320605686683 180.8075444902425 527.6143197516321 175.25 525.4424636698624 L 169 523 L 164.25 525.6512123681875 C 161.6375 527.1093791706908 157.1375 529.8093791706908 154.25 531.6512123681875 C 151.3625 533.4930455656844 145.175 536.8 140.5 539 C 135.825 541.2 131.8875 543.3555439898729 131.75 543.7900977552731 C 131.6125 544.2246515206732 126.55 547.3993998087615 120.5 550.8450939510246 C 114.45 554.2907880932879 108.825 557.5189429776791 108 558.0187714718941 C 107.175 558.518599966109 101.1 561.9351254843406 94.5 565.6110504012976 C 87.9 569.2869753182546 81.15 573.5299296158912 79.5 575.039837729379 C 77.85 576.5497458428667 72.9 579.4187263058941 68.5 581.4153498694398 C 64.1 583.4119734329854 60.05 585.0152838531033 59.5 584.9782619141461 C 58.95 584.9412399751889 57.825 585.6164040702313 57 586.478626569796 C 56.175 587.3408490693606 55.725 588.2928386163658 56 588.5941588964741 C 56.275 588.8954791765825 59.2 588.4670818640187 62.5 587.6421648685546 C 65.8 586.8172478730905 69.85 585.6639596466306 71.5 585.0793021430882 C 73.15 584.4946446395458 77.875 583.1627484934176 82 582.11953292947 C 86.125 581.0763173655224 94 579.0351405029977 99.5 577.5835843460816 C 108.23860209081971 575.2772985883055 109.68920968637704 575.1267700496065 111 576.3902373648995 C 112.31325237085065 577.6560778506401 113.06024288744806 577.4807799337943 117 574.9822040931169 C 119.475 573.4125704763707 126.675 570.0175448983864 133 567.4377028087074 C 139.325 564.8578607190284 146.525 561.9453951946405 149 560.9655571989565 C 151.475 559.9857192032724 155.975 557.940905372176 159 556.4215264631864 C 162.025 554.9021475541969 167.875 551.5204469673033 172 548.9066362700896 C 176.125 546.2928255728758 181.3 543.0331061898952 183.5 541.6628154190214 C 185.7 540.2925246481476 193.95111584995956 534.2953176816923 201.8358129999101 528.3356888268981 C 209.72051014986067 522.3760599721041 217.38254363029256 516.6 218.8625540675365 515.5 C 220.34256450478043 514.4 223.7833128141487 511.7 226.50866142168817 509.5 C 229.23401002922765 507.3 236.64697654879578 501.1711018641258 242.9819203540618 495.88022636472397 C 249.31686415932782 490.58935086532216 257.42600678656606 483.16435086532215 261.0022373034801 479.38022636472397 C 264.5784678203941 475.5961018641258 269.21054423705516 470.475 271.29574045161564 468 C 273.3809366661761 465.525 275.5174298796101 462.0375 276.0435031481355 460.25 C 276.7532289559211 457.83848252264823 276.61300806647006 456.0970188217634 275.5 453.5 C 274.1551737663251 450.3620721214253 273.6120655841872 450.007870198823 270.25 450.07607792550334 Z " class="odd" fill="#000000"></path><path d="M 448.75 450.25 C 449.7125 450.3875 451.5184880272421 452.525 452.7633067272046 455 C 454.47328552403286 458.39985053428035 455.04901619822857 461.3335824428661 455.11824859156843 467 C 455.18314736743713 472.31172685614695 454.63050693815813 475.9588487625687 453.22415085005224 479.5 C 452.1319977667808 482.25 449.9472739278171 486.6428914972408 448.36920898568843 489.26198110497955 C 446.79114404355977 491.8810707127183 444.7125 494.24357071271834 443.75 494.51198110497955 C 442.7875 494.78039149724077 441.55 494.775 441 494.5 C 440.4238263374186 494.2119131687093 441.25589575012884 491.56299855984315 442.9632319637759 488.25 C 444.59300954385265 485.0875 446.6272968916407 480.475 447.48387051441597 478 C 448.3551016689649 475.48264825092076 449.0128453196858 470.41588049856773 448.97674572658224 466.5 C 448.9412534704984 462.65 448.3402910081198 457.925 447.64127358796304 456 C 446.94225616780625 454.075 446.5120079386323 451.9375 446.68516641202086 451.25 C 446.8583248854094 450.5625 447.7875 450.1125 448.75 450.25 Z " class="even" fill="#ffffff"></path><path d="M 943.25 451.0633863004191 C 943.6625 451.0285238351886 946.3625 451.50256168347255 949.25 452.11680374105015 C 952.1375 452.7310457986277 954.95 453.562099931021 955.5 453.9635907019242 C 956.05 454.36508147282746 959.875 455.4884951173893 964 456.46006546761726 C 968.125 457.4316358178452 971.95 458.50234523760906 972.5 458.8394197337592 C 973.05 459.17649422990934 975.075 459.55300372967184 977 459.67610751100926 C 978.925 459.7992112923466 982.3 460.34934376208264 984.5 460.8986241104226 C 986.7 461.4479044587625 990.1875 462.1454196309656 992.25 462.44865782642944 C 994.3125 462.75189602189323 996 463.45 996 464 C 996 464.55 994.875 465 993.5 465 C 992.125 465 985.0375 466.13570488766953 977.75 467.5237886392656 C 970.4625 468.9118723908617 961.8 470.73760943038945 958.5 471.5809820604385 C 955.2 472.42435469048746 950.475 473.8213608290583 948 474.68544014615145 L 943.5 476.25649344995713 L 937.5 473.2266576453602 C 934.2 471.56024795283196 929.925 469.5407761452603 928 468.7389425174232 C 926.075 467.93710888958617 923.15 466.72856272027894 921.5 466.0532843634071 C 918.8166783836384 464.95510920458577 918.6806170152117 464.7027659771899 920.2110452548411 463.66275276636554 C 921.1521201450037 463.0232387448645 921.9396201450037 461.9375 921.9610452548411 461.25 C 921.9824703646785 460.5625 922.5625 460.1920032169163 923.25 460.42667381536955 C 923.9375 460.6613444138228 925.9625 459.9863444138228 927.75 458.92667381536955 C 929.5375 457.8670032169163 931.3375 457.0714413488063 931.75 457.1587585529028 C 932.1625 457.24607575699935 933.4 456.94251077862316 934.5 456.4841697120669 C 935.6 456.02582864551056 936.8375 455.05438729670425 937.25 454.32541115916405 C 937.6625 453.59643502162385 939.0125 452.5785238351886 940.25 452.0633863004191 C 941.4875 451.54824876564953 942.8375 451.09824876564954 943.25 451.0633863004191 Z " class="even" fill="#ffffff"></path><path d="M 209 462 C 210.11111111111111 462 211 462.6666666666667 211 463.5 C 211 464.325 209.9875 465.2542780812687 208.75 465.5650624028193 C 207.5125 465.8758467243699 206.275 465.8802640275805 206 465.57487863217614 C 205.725 465.2694932367718 205.8375 464.3402151555031 206.25 463.50981622935683 C 206.6625 462.6794173032106 207.9 462 209 462 Z " class="even" fill="#ffffff"></path><path d="M 210.75 468.02731569028026 C 211.4375 468.0122920606261 212.225 468.45 212.5 469 C 212.775 469.55 212.6625 470.6501849196174 212.25 471.44485537692753 C 211.8375 472.2395258342377 208.125 475.19293841685163 204 478.00799444940293 C 199.875 480.8230504819542 195.825 482.97920279297233 195 482.7994440294432 C 194.175 482.6196852659141 193.5 481.8301555778619 193.5 481.0449336115495 C 193.5 480.25971164523713 197.1 477.0156664752277 201.5 473.8359443448619 C 205.9 470.65622221449615 210.0625 468.0423393199344 210.75 468.02731569028026 Z " class="even" fill="#ffffff"></path><path d="M 135.5 470 C 134.675 470 132.7625 471.04068626191264 131.25 472.3126361375836 C 129.7375 473.5845860132546 125.35 476.6823355609149 121.5 479.19652402127315 C 117.65 481.7107124816314 110.9 485.4024133301464 106.5 487.40030368463977 C 102.1 489.39819403913316 97.825 491.44764731501533 97 491.9546442977113 C 96.175 492.4616412804072 92.2375 494.47925416997964 88.25 496.43822849676104 C 84.2625 498.39720282354244 80.55 500 80 500 C 79.45 500 77.0875 500.8419292005642 74.75 501.8709537790316 C 72.4125 502.899978357499 67.575 504.99544269448165 64 506.5275411945487 C 60.425 508.05963969461567 53.71630999187689 512.2802104940514 49.09179998194864 515.906587415517 C 44.46728997202039 519.5329643369827 39.83945377945749 523.625 38.80771955403108 525 C 37.28176887391783 527.0336460044141 37.17137355945007 527.7371678697843 38.21591957208244 528.7713940055685 C 39.25574790077994 529.8009490670611 40.641293460641776 529.5467324762992 45.5 527.4349283224008 C 48.8 526.000605493596 53.75 524.5635151724967 56.5 524.2413942755136 C 59.45470099237329 523.8952957540663 64.3634186106774 522.1198405767504 68.5 519.9010626890429 C 72.35 517.8360012134672 78.425 515.0143594935179 82 513.6307477558223 C 85.575 512.2471360181266 92.325 510.14834649940116 97 508.9667710475434 L 105.5 506.8184520441656 L 107.5 508.92982575051894 L 109.5 511.0411994568722 L 114 509.0153500686931 C 116.475 507.9011329051947 119.85 506.1413114179735 121.5 505.10463565264615 C 123.15 504.0679598873188 128.55 501.0921882473398 133.5 498.4918097860261 C 138.45 495.89143132471247 143.175 493.19520919166325 144 492.5002050459168 C 144.825 491.8052009001703 146.5125 490.95833488703363 147.75 490.6182805722798 C 148.9875 490.2782262575259 150 489.325 150 488.5 C 150 487.675 149.12968770884177 486.4375 148.06597268631506 485.75 C 147.00225766378836 485.0625 144.63975766378834 482.28498870676145 142.81597268631506 479.5777526816921 C 140.99218770884178 476.87051665662284 138.9375 473.60801665662285 138.25 472.3277526816921 C 137.5625 471.04748870676144 136.325 470 135.5 470 Z " class="odd" fill="#000000"></path><path d="M 558.25 473.97222222222223 L 572 474 L 572 486 C 572 496.4287046866814 571.7708527668077 498.11452781300534 570.25 498.8746501974613 C 569.2875 499.355707806065 566.025 500.0451064113045 563 500.4066470979935 C 559.975 500.7681877846826 555.25 501.71934389314384 552.5 502.5203273390186 C 549.75 503.32131078489334 547.4206835602216 503.8694121796538 547.3237412449371 503.73833043848634 C 547.2267989296524 503.6072486973189 546.3267989296523 497.0564045919768 545.3237412449371 489.18089909328177 C 544.3206835602217 481.30539359458675 543.725 474.6553935945867 544 474.403121315504 C 544.275 474.1508490364213 550.6875 473.95694444444445 558.25 473.97222222222223 Z " class="even" fill="#ffffff"></path><path d="M 847.75 491.05152823173717 L 851 491 L 851.003470182215 498.75 C 851.0061461401087 504.72624919720676 850.5217627772436 507.41548428531263 848.8870674404695 510.5 C 847.7211373322914 512.7 844.2320757502946 517.6048401171234 841.1335972582547 521.3996447047188 C 838.0351187662146 525.1944492923141 832.35 530.7705091403583 828.5 533.7908888114837 C 824.65 536.8112684826092 818.8 540.5468908472183 815.5 542.0922718439483 C 811.1179970252307 544.1443518817737 809.0280842009744 544.6455954660877 807.75 543.9510277371834 C 806.3411369823153 543.1853889899205 806.0487338546164 541.8594254697388 806.25 537.148962055036 C 806.4486315111711 532.5001600193256 807.4246327989202 529.472518561099 811 522.414046120916 C 813.8552512288595 516.777223110788 817.6929983615206 511.1972566598594 821.5 507.14736863814903 C 824.8 503.636828916663 829.525 499.3146002673059 832 497.5424160840222 C 834.475 495.77023190073845 838.3 493.5963915474991 840.5 492.71165974349026 C 842.7 491.8269279394815 845.9625 491.07986875919255 847.75 491.05152823173717 Z " class="even" fill="#ffffff"></path><path d="M 153 499.05305123804317 C 152.175 499.10560850340204 147.45 501.64683520760923 142.5 504.700221691837 C 137.55 507.75360817606474 131.25 511.4576362085968 128.5 512.9313950974638 C 125.75 514.4051539863308 119.1125 518.1734914530288 113.75 521.3054783567927 C 108.3875 524.4374652605568 103.6625 527.0126676187605 103.25 527.0281502639122 C 102.8375 527.0436329090638 100.1375 528.6186329090639 97.25 530.5281502639122 C 94.3625 532.4376676187604 91.775 534.45 91.5 535 C 91.225 535.55 89.425 536 87.5 536 C 85.575 536 82.7625 536.4896923691314 81.25 537.0882052647364 C 79.7375 537.6867181603415 77.0375 539.4867181603414 75.25 541.0882052647364 C 73.4625 542.6896923691314 71.55 544 71 544 C 70.45 544 65.6125 545.8547401031593 60.25 548.1216446736873 C 54.35495277229364 550.6136744180166 49.673257740525116 553.2824878757583 48.40899201468449 554.8716446736873 C 47.25893762276097 556.3172401031593 44.87239626676366 558.175 43.10556677913492 559 C 41.33873729150618 559.825 39.66291280362957 561.4 39.38151236163134 562.5 C 39.10011191963311 563.6 39.011653275630415 564.5734497509816 39.18493759718091 564.663221668848 C 39.35822191873141 564.7529935867144 41.525 564.4350915661875 44 563.9567727343435 C 46.475 563.4784539024997 50.975 563.0692622750457 54 563.047458006668 C 58.009788082013756 563.0185553635346 64.30932028077378 561.3810695772146 77.25 557.0039069411723 C 87.0125 553.7017581235275 95.7875 551.0034794126946 96.75 551.0077320282101 C 97.7125 551.0119846437256 99.4 550.3969917570159 100.5 549.6410811688554 C 101.6 548.8851705806948 106.1 546.3523984838788 110.5 544.0126987314866 C 114.9 541.6729989790945 123 537.4175565749147 128.5 534.5561600555316 C 134 531.6947635361486 141.425 527.7450849607844 145 525.7790965547224 C 148.575 523.8131081486605 153.9178144046661 520.9210434395499 156.87292089925796 519.3522860900322 C 159.82802739384988 517.7835287405145 162.75302739384986 515.7400323849467 163.37292089925796 514.8111830776593 C 164.24842241434465 513.4993303663103 164.1357806352522 512.7180883494775 162.86828057227973 511.31118307765934 C 161.9708348870336 510.3150323849467 160.9077799384071 508.375 160.5059362419986 507 C 160.10409254559008 505.625 158.5883662880642 503.2529358290947 157.13765566971884 501.72874628687714 C 155.68694505137347 500.2045567446596 153.825 499.0004939726843 153 499.05305123804317 Z " class="odd" fill="#000000"></path><path d="M 890.9171337003718 508.199417268671 C 891.6965572355762 508.36473777090197 892.5036213564703 508.95 892.7106095245808 509.5 C 892.9175976926915 510.05 891.7147224845793 511.175 890.0375535065536 512 C 888.3603845285281 512.825 886.653320407634 513.1651537327142 886.2440776823446 512.7558971838092 C 885.834834957055 512.3466406349042 886.4 511.0863784058063 887.5 509.95531445248025 C 888.6 508.8242504991543 890.1377101651673 508.03409676644014 890.9171337003718 508.199417268671 Z " class="even" fill="#ffffff"></path><path d="M 923.6801204614377 520 C 923.9265852297057 520.825 923.9356665462168 522.625 923.7003011647957 524 C 923.445108951808 525.4908279660309 923.2642177870846 524.8853247456494 923.2521834043084 522.5 C 923.2410840174616 520.3 923.4336556931697 519.175 923.6801204614377 520 Z " class="even" fill="#ffffff"></path><path d="M 375.1409048516207 530.8637741863076 C 380.8384071832293 531.0638499887768 385.7799648649045 531.5138499887769 386.12214414423227 531.8637741863076 C 386.46432342355996 532.2136983838384 387.02682342355996 540.2625 387.37214414423227 549.75 C 387.7774117177661 560.8845073542567 387.6454786872033 567.1772606563984 387 567.5 C 386.45 567.775 382.7375 564.8889311176804 378.75 561.0865135948454 C 372.93990982789853 555.5461026407011 370.93467690992054 552.815239173997 368.65357703401634 547.3365135948454 C 367.0880444027253 543.5764311176804 365.57645158595466 538.25 365.2944818856371 535.5 L 364.78180970324144 530.5 L 375.1409048516207 530.8637741863076 Z " class="even" fill="#ffffff"></path><path d="M 531 531 C 531.6138147888961 531 531.903453697224 534.6534672692268 531.75 540.4604018076802 C 531.5718083655811 547.2034596491612 531.0691498065135 550.3865713327011 530 551.5423685736057 C 529.0593008048259 552.559305141035 527.6610487927612 552.946937211475 526.25 552.5819667659255 C 525.0125 552.2618850446664 523.55 550.875 523 549.5 C 522.3293636630534 547.8234091576335 522.3382775154159 545.6002044320231 523.0270638609004 542.75 C 523.5919489843957 540.4125 525.3919489843958 536.8125 527.0270638609004 534.75 C 528.6621787374052 532.6875 530.45 531 531 531 Z " class="even" fill="#ffffff"></path><path d="M 110.85482528407387 581.1265687443583 L 110.5 579.7531374887167 L 109.34502220941573 581.1265687443583 C 108.70978442459439 581.8819559349613 108.03478442459439 583.3533153815935 107.84502220941573 584.3962564035412 C 107.65525999423708 585.4391974254888 108.0625 586.4516974254888 108.75 586.6462564035412 C 109.4375 586.8408153815935 110.27217137783325 585.9875 110.60482528407387 584.75 C 110.93747919031449 583.5125 111.0499791903145 581.8819559349613 110.85482528407387 581.1265687443583 Z " class="odd" fill="#000000"></path><path d="M 923.5496031746031 661 C 923.8824404761905 661.275 923.9304667919799 662.175 923.656328320802 663 C 923.3091628886428 664.0447693835184 923.12550503411 663.8930258446911 923.0511695906432 662.5 C 922.9924707602339 661.4 923.2167658730159 660.725 923.5496031746031 661 Z " class="even" fill="#ffffff"></path><path d="M 923.7222222222222 665.25 L 924.5 666 L 923.7222222222222 666.75 C 923.2944444444445 667.1625 922.9444444444445 666.825 922.9444444444445 666 C 922.9444444444445 665.175 923.2944444444445 664.8375 923.7222222222222 665.25 Z " class="even" fill="#ffffff"></path></g></svg>